<svg width="122" height="23" viewBox="0 0 122 23" xmlns="http://www.w3.org/2000/svg" xmlns:xlink="http://www.w3.org/1999/xlink"><defs><path id="path-1" d="M.266.083h25.726v14.898H.266z"/><path id="path-3" d="M0 .04h121.94v22.94H0z"/></defs><g id="Web-Responsive-Bit-Grid" fill="none" fill-rule="evenodd"><g id="Desktop-1440-+" transform="translate(-659 -3647)"><g id="Footer" transform="translate(0 3485)"><g id="Group-2" transform="translate(481 48)"><g id="Truecaller_logo_white_rgb" transform="translate(178 114)"><g id="Group-4" transform="translate(56 8)"><mask id="mask-2" fill="#fff"><use xlink:href="#path-1"/></mask><path d="M7.963.083c1.82 0 3.341.66 4.326 1.635l-2 2.61c-.715-.573-1.372-.831-2.058-.831-2.118 0-3.46 1.578-3.46 4.045 0 2.467 1.402 4.044 3.311 4.044 1.074 0 1.94-.487 2.655-1.032l1.76 2.668C11.066 14.426 9.187 15 7.576 15c-4.117 0-7.31-2.725-7.31-7.458 0-4.734 3.61-7.459 7.698-7.459" id="Fill-1" fill="#FFFFFE" mask="url(#mask-2)"/><path d="M19.16 11.73c1.015 0 1.67-.46 2.447-1.205V8.029c-3.133.402-4.147 1.263-4.147 2.353 0 .917.656 1.348 1.7 1.348zm2.447-6.225c-.09-1.263-.746-2.066-2.327-2.066-1.254 0-2.506.488-3.938 1.291L13.79 1.948C15.67.858 17.788.083 20.115.083c3.789 0 5.877 2.065 5.877 6.426v8.147h-3.58l-.328-1.463h-.09C20.741 14.254 19.34 15 17.67 15c-2.686 0-4.386-1.893-4.386-4.303 0-2.983 2.476-4.619 8.324-5.192z" id="Fill-3" fill="#FFFFFE" mask="url(#mask-2)"/></g><path id="Fill-5" fill="#FFFFFE" d="M84 23h4V2h-4z"/><g id="Group-11"><mask id="mask-4" fill="#fff"><use xlink:href="#path-3"/></mask><path id="Fill-6" fill="#FFFFFE" mask="url(#mask-4)" d="M90.816 22.643h4.414V1.798h-4.414z"/><path d="M106.34 13.752c0-1.695-.721-2.885-2.492-2.885-1.382 0-2.583.922-2.883 2.885h5.375zm-2.583-6.215c4.234 0 6.335 3.063 6.335 7.077 0 .773-.09 1.487-.18 1.844h-8.917c.39 2.23 1.892 3.212 3.873 3.212 1.111 0 2.132-.328 3.213-.982l1.471 2.647c-1.531 1.04-3.513 1.665-5.284 1.665-4.264 0-7.536-2.855-7.536-7.732 0-4.787 3.452-7.731 7.025-7.731z" id="Fill-8" fill="#FFFFFE" mask="url(#mask-4)"/><path d="M111.911 7.894h3.603l.3 2.587h.12c1.081-1.993 2.703-2.944 4.234-2.944.84 0 1.351.119 1.771.297l-.72 3.777c-.54-.149-.99-.238-1.621-.238-1.111 0-2.492.714-3.273 2.706v8.564h-4.414V7.893" id="Fill-9" fill="#FFFFFE" mask="url(#mask-4)"/><path d="M47.75 11.611c1.197-.595 2.686-.565 2.846.144.336 1.491-1.838 2.746-4.736 3.176.008-.667.18-2.445 1.89-3.32zm-6.052 4.986c-.175 1.636-.294 2.853-2.036 2.743-.924-.076-1.395-.731-1.254-2.02l1.196-7.986c.015-.137.329-1.751-.838-1.8-1.231-.053-2.844.51-3.12 2.236-.27 1.692-.384 2.657-.602 4.03-.098.65-.198 1.296-.28 1.93-.292 2.074-.406 3.154-1.995 3.056-1.425-.145-1.33-1.369-1.18-2.407l.993-7.027c.014-.138.328-1.768-.839-1.817-1.23-.053-2.844.527-3.12 2.253-.068.428-.126.81-.179 1.163v-.01c-.292 2.01-1.443 2.725-2.342 2.669-1.116-.189-.835-1.263-.67-2.365l.135-.904c.376-2.5-.529-3.38-2.732-2.45-1.194.504-2.443 1.83-3.234 2.786l.2-1.342c.015-.138.33-1.751-.838-1.8-1.23-.053-2.844.51-3.12 2.236l-.082.525c-.373 1.6-2.732 9.11-6.331 9.11-2.602 0-1.71-4.886-.875-8.011 1.4.152 2.702.275 3.168.316 1.537.134 1.866-1.175 1.973-1.795.3-1.701.063-2.385-1.354-2.385H9.879a50.782 50.782 0 0 1 1.97-3.91c1.367-2.455-.886-3.267-.886-3.267s-2.572-1.32-4.206 1.45c-1.15 1.952-1.88 4.051-2.384 5.728H.968c-1.064 0-.966.957-.966.957 0 .879 2.086 1.673 3.556 2.105-.8 3.975-1.388 12.384 5.044 12.376 3.088-.003 4.893-2.065 5.948-4.402-.15 1.689-.08 3.19.591 3.863.892.892 2.61.688 2.791-.69.126-.881.38-2.496.58-3.79.274-1.578.62-2.463 1.174-3.706.625-1.398 2.397-2.551 2.365-.93-.094 4.762 3.53 4.86 5.622 2.742-.3 2.086-.393 4.054.73 5.394 2.185 2.605 5.463 1.332 7.172.192 1.843 2.397 6.163 1.108 7.257-.46v.004c1.25 1.683 3.57 1.845 5.297 1.776 3.647-.177 6.192-3.21 6.49-4.798.126-.666-.236-1.356-1.156-.826-.784.425-2.054 2.046-4.767 2.26-1.92.15-2.798-1.21-2.798-2.095 5.914-.822 8.183-3.098 8.183-5.99 0-1.944-1.698-3.983-4.489-3.983-5.744 0-7.534 5.1-7.894 9.066z" id="Fill-10" fill="#FFFFFE" mask="url(#mask-4)"/></g></g></g></g></g></g></svg>