<?xml version="1.0" encoding="UTF-8"?>
<svg width="136px" height="136px" viewBox="0 0 136 136" version="1.1" xmlns="http://www.w3.org/2000/svg" xmlns:xlink="http://www.w3.org/1999/xlink">
    <!-- Generator: Sketch 52.5 (67469) - http://www.bohemiancoding.com/sketch -->
    <title>All premium features</title>
    <desc>Created with Sketch.</desc>
    <defs>
        <linearGradient x1="50%" y1="0%" x2="50%" y2="100%" id="linearGradient-1">
            <stop stop-color="#976A00" offset="0%"></stop>
            <stop stop-color="#5D3800" offset="100%"></stop>
        </linearGradient>
        <circle id="path-2" cx="64" cy="64" r="64"></circle>
        <linearGradient x1="-0.489700672%" y1="99.5102993%" x2="99.5102993%" y2="0.489700672%" id="linearGradient-4">
            <stop stop-color="#FEC240" offset="0%"></stop>
            <stop stop-color="#FDEA8A" offset="49.4580925%"></stop>
            <stop stop-color="#B97B1D" offset="100%"></stop>
        </linearGradient>
        <radialGradient cx="50%" cy="50%" fx="50%" fy="50%" r="100%" gradientTransform="translate(0.500000,0.500000),scale(0.448333,1.000000),rotate(90.000000),scale(1.000000,1.458545),translate(-0.500000,-0.500000)" id="radialGradient-5">
            <stop stop-color="#FFFFFF" stop-opacity="0" offset="0%"></stop>
            <stop stop-color="#B17E00" stop-opacity="0.5" offset="100%"></stop>
        </radialGradient>
        <path d="M88.9411765,41.6 C83.2941176,41.6 77.9607843,43.7960784 74.1568627,47.6 L63.0588235,57.4431373 L57.0980392,62.6980392 L57.1372549,62.6980392 L46.5882353,72.0705882 C44.0784314,74.5803922 40.745098,75.9529412 37.1764706,75.9529412 C29.8431373,75.9529412 23.8823529,70.0313725 23.8823529,62.6980392 C23.8823529,55.3647059 29.8431373,49.4431373 37.1764706,49.4431373 C40.745098,49.4431373 44.0784314,50.8156863 46.745098,53.4823529 L51.1764706,57.4039216 L57.0980392,52.1490196 L52.1568627,47.7960784 C48.1568627,43.7960784 42.8235294,41.6 37.1764706,41.6 C25.4901961,41.6 16,51.0901961 16,62.6980392 C16,74.3058824 25.4901961,83.7960784 37.1764706,83.7960784 C42.8235294,83.7960784 48.1568627,81.6 51.9607843,77.7960784 L63.0588235,67.9921569 L63.0980392,68.0313725 L69.0196078,62.6980392 L68.9803922,62.6980392 L79.5294118,53.3254902 C82.0392157,50.8156863 85.372549,49.4431373 88.9411765,49.4431373 C96.2745098,49.4431373 102.235294,55.3647059 102.235294,62.6980392 C102.235294,70.0313725 96.2745098,75.9529412 88.9411765,75.9529412 C85.4117647,75.9529412 82.0392157,74.5803922 79.372549,71.9137255 L74.9019608,67.9529412 L68.9803922,73.2078431 L73.9607843,77.6 C77.9607843,81.5607843 83.254902,83.7568627 88.9411765,83.7568627 C100.627451,83.7568627 110.117647,74.3058824 110.117647,62.6588235 C110.117647,51.0117647 100.627451,41.6 88.9411765,41.6 Z" id="path-6"></path>
    </defs>
    <g id="All-premium-features" stroke="none" stroke-width="1" fill="none" fill-rule="evenodd">
        <g id="Group-14" transform="translate(4.000000, 4.000000)">
            <mask id="mask-3" fill="white">
                <use xlink:href="#path-2"></use>
            </mask>
            <use id="Oval-6" fill="url(#linearGradient-1)" xlink:href="#path-2"></use>
            <g id="Shape" fill-rule="nonzero" mask="url(#mask-3)">
                <use fill="url(#linearGradient-4)" xlink:href="#path-6"></use>
                <path stroke-opacity="0.2" stroke="#FFFFFF" stroke-width="1.6" d="M70.187641,73.2060919 L69.5095332,72.607835 L69.5113911,73.8062077 L70.187641,73.2060919 Z M74.9023954,69.0221376 L75.4329598,68.5513057 L74.3714485,68.5517372 L74.9023954,69.0221376 Z M66.9359806,63.4980392 L69.0196078,63.4980392 L69.0196078,62.6980392 L68.4842186,62.1035997 L66.9359806,63.4980392 Z M63.1268326,66.9287951 L62.56265,67.436933 L63.0980392,68.0313725 L63.6637246,67.4656871 L63.1268326,66.9287951 Z M55.890459,52.151065 L56.5692148,52.7493068 L56.5670402,51.5506551 L55.890459,52.151065 Z M51.1757337,56.3349933 L50.6454716,56.8055571 L51.7066441,56.8048255 L51.1757337,56.3349933 Z M59.2152492,61.8980392 L57.0980392,61.8980392 L57.0980392,62.6980392 L57.6270753,63.2981399 L59.2152492,61.8980392 Z" stroke-linejoin="square" fill="url(#radialGradient-5)" fill-rule="evenodd"></path>
            </g>
            <path d="M92.2553886,39.7483854 L108.461802,40.7626677 L92.3728016,41.7696017 L91.2411063,59.8520643 L90.1167593,41.8870147 L72.1517097,40.7626677 L90.2341723,39.6309725 L91.2411063,23.5419717 L92.2553886,39.7483854 Z" id="Combined-Shape" fill="#FFFFFF" mask="url(#mask-3)"></path>
        </g>
    </g>
</svg>