<?xml version="1.0" encoding="UTF-8"?>
<svg width="136px" height="136px" viewBox="0 0 136 136" version="1.1" xmlns="http://www.w3.org/2000/svg" xmlns:xlink="http://www.w3.org/1999/xlink">
    <!-- Generator: Sketch 52.6 (67491) - http://www.bohemiancoding.com/sketch -->
    <title>Incognito Mode</title>
    <desc>Created with Sketch.</desc>
    <defs>
        <circle id="path-1" cx="64" cy="64" r="64"></circle>
        <path d="M14.7925847,0.952670393 C19.8077371,1.65089013 25.5435421,2 32,2 C38.456454,2 44.1922561,1.65089055 49.2074063,0.952671646 L49.2074065,0.952673677 C56.3185214,-0.0373494857 62.8857914,4.92477579 63.8758146,12.0358907 C63.9585058,12.629843 64,13.2288053 64,13.8284862 L64,17 L-1.47087028e-05,17 L-1.21295206e-05,13.8284749 C-6.84931575e-06,6.64877334 5.82029557,0.828479476 12.9999972,0.828484756 C13.5996754,0.828485197 14.198635,0.869979505 14.7925847,0.952670393 Z" id="path-3"></path>
        <rect id="path-5" x="0" y="0" width="85" height="8" rx="4"></rect>
        <path d="M2,0 L28,0 L23.8233926,12.5298221 C22.7344803,15.7965592 19.6773695,18 16.2339262,18 L4,18 C1.790861,18 1.15871992e-15,16.209139 8.8817842e-16,14 L0,2 C-1.3527075e-16,0.8954305 0.8954305,2.02906125e-16 2,0 Z" id="path-7"></path>
    </defs>
    <g id="Incognito-Mode" stroke="none" stroke-width="1" fill="none" fill-rule="evenodd">
        <g id="Group" transform="translate(4.000000, 4.000000)">
            <g id="Group-6">
                <g id="Group-4">
                    <mask id="mask-2" fill="white">
                        <use xlink:href="#path-1"></use>
                    </mask>
                    <use id="Oval-6" fill="#BFE9FD" xlink:href="#path-1"></use>
                    <path d="M93.8528493,43.545977 C94.237082,42.8828985 94.9552418,42.4367816 95.7777778,42.4367816 C96.2190691,42.4367816 96.6303174,42.5651889 96.976075,42.7866166 C97.3202258,41.3147454 98.6429692,40.2183908 100.222222,40.2183908 C100.768503,40.2183908 101.284091,40.3495742 101.739099,40.5821057 C102.442616,39.0579534 103.986434,38 105.777778,38 C108.232377,38 110.222222,39.9864148 110.222222,42.4367816 C110.222222,42.8197863 110.173608,43.1914561 110.082203,43.545977 L110.222222,43.545977 C110.222222,45.9963438 108.235807,47.9827586 105.785441,47.9827586 L88,47.9827586 C90.0923462,47.1494413 91.5427223,46.4099777 92.3511285,45.7643678 C93.1595346,45.1187579 93.5610103,44.3792943 93.5555556,43.545977 L93.8528493,43.545977 Z" id="Combined-Shape" fill="#FFFFFF" mask="url(#mask-2)"></path>
                    <path d="M12.3061348,85.2126437 C13.1140181,83.7524967 14.6240128,82.7701149 16.3534676,82.7701149 C17.2813216,82.7701149 18.1460078,83.052877 18.8729936,83.5404769 C19.5966012,80.2993099 22.3777866,77.8850575 25.6983062,77.8850575 C26.8469092,77.8850575 27.9309786,78.1739328 28.8876749,78.6859842 C30.3668812,75.3296902 33.6128961,73 37.3793544,73 C42.5403663,73 46.724193,77.3742295 46.724193,82.7701149 C46.724193,83.6135191 46.6219768,84.4319628 46.4297898,85.2126437 L46.724193,85.2126437 C46.724193,90.6085292 42.3499636,94.9827586 36.9540781,94.9827586 L0,94.9827586 C4.39934339,93.1477334 7.44888789,91.5193809 9.1486335,90.0977011 C10.8483791,88.6760214 11.6925174,87.0476689 11.6810483,85.2126437 L12.3061348,85.2126437 Z" id="Combined-Shape" fill="#FFFFFF" mask="url(#mask-2)"></path>
                    <path d="M28.0434004,100.726293 C28.7512443,98.7270716 30.6611864,97.2947198 32.90625,97.2947198 C34.2749493,97.2947198 35.5190936,97.8270836 36.4422359,98.6957027 C37.0710513,94.9880186 40.6350438,92.1473599 44.9375,92.1473599 C45.9699419,92.1473599 46.9598605,92.3109351 47.8769014,92.6108137 C49.7269481,89.2799394 53.4885963,87 57.828125,87 C63.9981812,87 69,91.6091031 69,97.2947198 C69,98.497951 68.7759882,99.6529693 68.3642991,100.726293 L69,100.726293 C69,106.41191 64.3908969,111.021013 58.7052802,111.021013 L14,111.021013 C19.1785568,109.087456 22.7682378,107.37167 24.769043,105.873653 C26.7698482,104.375636 27.7635005,102.65985 27.75,100.726293 L28.0434004,100.726293 Z" id="Combined-Shape" fill-opacity="0.5" fill="#FFFFFF" mask="url(#mask-2)"></path>
                    <path d="M-29,109.205974 C-29,109.205974 -0.449032738,83.9809 26.9188988,87.3012125 C54.2868304,90.621525 73.1837798,107.676103 104.370536,105.22718 C125.161706,103.594564 143.281746,98.7136118 158.730655,90.5843226 L158.730655,130.965647 L-16.3790923,126.516242 C-24.7930308,114.976064 -29,109.205974 -29,109.205974 Z" id="Path-7" fill="#68CD8E" mask="url(#mask-2)" transform="translate(64.865327, 108.982823) scale(-1, 1) translate(-64.865327, -108.982823) "></path>
                    <path d="M69,105.25978 C98.9492188,103.149102 116.212565,99.743829 120.790039,95.0439592 C125.367513,90.3440894 125.994141,93.7493628 122.669922,105.25978 L85.0283203,110.778334 L69,105.25978 Z" id="Path-8" fill="#63BF85" mask="url(#mask-2)"></path>
                    <path d="M-39,109.205974 C-39,109.205974 -10.4490327,83.9809 16.9188988,87.3012125 C44.2868304,90.621525 63.1837798,107.676103 94.3705357,105.22718 C115.161706,103.594564 133.281746,98.7136118 148.730655,90.5843226 L148.730655,130.965647 L-26.3790923,126.516242 C-34.7930308,114.976064 -39,109.205974 -39,109.205974 Z" id="Path-7" fill="#91E3AF" mask="url(#mask-2)"></path>
                    <path d="M9.6171875,102 C26.7356771,104.00651 42.8808594,110.209635 58.0527344,120.609375 L82.9609375,140.447266 L7,125.6875 L9.6171875,102 Z" id="Path-10" fill="#A7E8BF" mask="url(#mask-2)"></path>
                </g>
            </g>
            <rect id="Rectangle" fill="#FC513D" x="32" y="44" width="64" height="10"></rect>
            <path d="M32,44 L75,44 C77.7614237,44 80,46.2385763 80,49 L80,49 C80,51.7614237 77.7614237,54 75,54 L32,54 L32,44 Z" id="Rectangle" fill-opacity="0.15" fill="#FFFFFF"></path>
            <path d="M32,44 L51,44 C53.7614237,44 56,46.2385763 56,49 L56,49 C56,51.7614237 53.7614237,54 51,54 L32,54 L32,44 Z" id="Rectangle" fill-opacity="0.15" fill="#FFFFFF"></path>
            <g id="Path-5" transform="translate(32.000000, 27.000000)">
                <mask id="mask-4" fill="white">
                    <use xlink:href="#path-3"></use>
                </mask>
                <use id="Mask" fill="#2E546E" xlink:href="#path-3"></use>
                <path d="M36.9609375,0.826171875 C28.1933594,1.51432292 22.4944661,3.92578125 19.8642578,8.06054688 C17.2340495,12.1953125 17.2340495,15.3167318 19.8642578,17.4248047 L-2.6171875,19.8730469 L-0.184570312,-3.4453125 L34.1621094,-3.4453125 L36.9609375,0.826171875 Z" fill="#376482" mask="url(#mask-4)"></path>
            </g>
            <g id="Path-6" transform="translate(22.000000, 54.000000)">
                <mask id="mask-6" fill="white">
                    <use xlink:href="#path-5"></use>
                </mask>
                <use id="Mask" fill="#2E546E" xlink:href="#path-5"></use>
                <path d="M29.6733398,0.202636719 C25.5681966,1.40283203 23.0369466,3.55029297 22.0795898,6.64501953 C21.1222331,9.73974609 20.0416667,12.1306966 18.8378906,13.8178711 L-3.83447266,13.8178711 L-2.98144531,0.202636719 L8.04931641,-2.93505859 L32.3256836,-2.93505859 L29.6733398,0.202636719 Z" fill="#376482" mask="url(#mask-6)"></path>
            </g>
            <rect id="Rectangle-2" fill="#214259" x="56" y="65" width="15" height="5"></rect>
            <path d="M68,65 L94,65 L89.8233926,77.5298221 C88.7344803,80.7965592 85.6773695,83 82.2339262,83 L70,83 C67.790861,83 66,81.209139 66,79 L66,67 C66,65.8954305 66.8954305,65 68,65 Z" id="Rectangle-11" fill="#214259" transform="translate(80.000000, 74.000000) scale(-1, 1) translate(-80.000000, -74.000000) "></path>
            <polygon id="Path-2" fill-opacity="0.469999999" fill="#BFE9FD" points="90.8706055 66 73 80.3271484 70 68.0097656"></polygon>
            <polygon id="Path-2" fill-opacity="0.469999999" fill="#BFE9FD" points="88.8706055 63 71 77.3271484 68 65.0097656"></polygon>
            <path d="M70,69 L70,79 L82.2339262,79 C83.9556479,79 85.4842032,77.8982796 86.0286594,76.2649111 L88.4502965,69 L70,69 Z M68,65 L94,65 L89.8233926,77.5298221 C88.7344803,80.7965592 85.6773695,83 82.2339262,83 L70,83 C67.790861,83 66,81.209139 66,79 L66,67 C66,65.8954305 66.8954305,65 68,65 Z" id="Mask" fill="#376482" fill-rule="nonzero" transform="translate(80.000000, 74.000000) scale(-1, 1) translate(-80.000000, -74.000000) "></path>
            <g id="Rectangle-15-+-Rectangle-15-Mask" transform="translate(34.000000, 65.000000)">
                <mask id="mask-8" fill="white">
                    <use xlink:href="#path-7"></use>
                </mask>
                <use id="Mask" fill="#214259" xlink:href="#path-7"></use>
                <polygon id="Path-2" fill-opacity="0.469999999" fill="#BFE9FD" mask="url(#mask-8)" points="20.8696289 0.637207031 2.99902344 14.9643555 2.99902344 2.64697266"></polygon>
                <polygon id="Path-2" fill-opacity="0.469999999" fill="#BFE9FD" mask="url(#mask-8)" points="17.8696289 -1.36279297 -0.0009765625 12.9643555 -0.0009765625 0.646972656"></polygon>
                <path d="M4,4 L4,14 L16.2339262,14 C17.9556479,14 19.4842032,12.8982796 20.0286594,11.2649111 L22.4502965,4 L4,4 Z M2,0 L28,0 L23.8233926,12.5298221 C22.7344803,15.7965592 19.6773695,18 16.2339262,18 L4,18 C1.790861,18 1.15871992e-15,16.209139 8.8817842e-16,14 L0,2 C-1.3527075e-16,0.8954305 0.8954305,2.02906125e-16 2,0 Z" id="Mask" fill="#376482" fill-rule="nonzero" mask="url(#mask-8)"></path>
            </g>
            <path d="M27.4331186,26.348046 C27.9210942,25.5059362 28.8331571,24.9393678 29.8777778,24.9393678 C30.4382177,24.9393678 30.9605031,25.102445 31.3996152,25.3836582 C31.8366867,23.5143819 33.5165709,22.1220115 35.5222222,22.1220115 C36.2159983,22.1220115 36.870795,22.2886144 37.4486562,22.5839295 C38.3421224,20.648256 40.3027717,19.3046552 42.5777778,19.3046552 C45.6951184,19.3046552 48.2222222,21.827402 48.2222222,24.9393678 C48.2222222,25.4257838 48.1604819,25.8978044 48.0443975,26.348046 L48.2222222,26.348046 C48.2222222,29.4600118 45.6994754,31.9827586 42.5875096,31.9827586 L20,31.9827586 C22.6572796,30.9244456 24.4992574,29.9853268 25.5259332,29.1654023 C26.552609,28.3454778 27.0624831,27.406359 27.0555556,26.348046 L27.4331186,26.348046 Z" id="Combined-Shape" fill="#FFFFFF"></path>
        </g>
    </g>
</svg>