<svg xmlns="http://www.w3.org/2000/svg" xmlns:xlink="http://www.w3.org/1999/xlink" width="345" height="147" viewBox="0 0 345 147">
  <defs>
    <linearGradient id="premium-header-bg-a" x1="50%" x2="50%" y1="0%" y2="100%">
      <stop offset="0%" stop-color="#88D9FF"/>
      <stop offset="100%" stop-color="#FFF"/>
    </linearGradient>
    <rect id="premium-header-bg-b" width="651" height="171" x="0" y="0"/>
    <rect id="premium-header-bg-d" width="651" height="171" x="0" y="0"/>
    <rect id="premium-header-bg-f" width="651" height="171" x="0" y="0"/>
  </defs>
  <g fill="none" fill-rule="evenodd" transform="translate(-143 -19)">
    <rect width="651" height="171" fill="url(#premium-header-bg-a)" fill-rule="nonzero"/>
    <mask id="premium-header-bg-c" fill="#fff">
      <use xlink:href="#premium-header-bg-b"/>
    </mask>
    <g mask="url(#premium-header-bg-c)">
      <g transform="translate(178.426 64.125)">
        <path fill="#CCECFC" fill-rule="nonzero" d="M119.097343,60.8811591 C122.95079,52.959935 131.081932,47.5 140.489448,47.5 C145.209957,47.5 149.609095,48.8747227 153.307676,51.2453188 C156.98907,35.4875271 171.138504,23.75 188.03183,23.75 C193.875411,23.75 199.390674,25.1544439 204.257919,27.6439171 C211.783464,11.3264047 228.297744,0 247.459807,0 C273.71674,0 295.002189,21.2664744 295.002189,47.5 C295.002189,47.7539299 295.002189,48.0073945 294.996221,48.2603788 L295.002189,48.26 C295.002189,80.6321704 268.756941,106.875 236.381787,106.875 L57.2902802,106.875 C81.0491962,100.284019 96.5639217,92.3673526 103.834458,83.1249998 C110.559412,74.5761945 115.64704,67.161581 119.097343,60.8811591 Z"/>
        <path fill="#CCECFC" fill-rule="nonzero" d="M61.807063,60.8811591 C65.6605099,52.959935 73.7916521,47.5 83.1991681,47.5 C87.9196769,47.5 92.3188151,48.8747227 96.0173957,51.2453188 C99.6987893,35.4875271 113.848224,23.75 130.74155,23.75 C136.585131,23.75 142.100394,25.1544439 146.967639,27.6439171 C154.493184,11.3264047 171.007464,0 190.169527,0 C216.426459,0 237.711909,21.2664744 237.711909,47.5 C237.711909,47.7539299 237.711909,48.0073945 237.70594,48.2603788 L237.711909,48.26 C237.711909,80.6321704 211.46666,106.875 179.091506,106.875 L0,106.875 C23.7589158,100.284019 39.2736417,92.3673526 46.5441775,83.1249998 C53.2691314,74.5761945 58.3567596,67.161581 61.807063,60.8811591 Z" transform="matrix(-1 0 0 1 237.712 0)"/>
      </g>
    </g>
    <mask id="premium-header-bg-e" fill="#fff">
      <use xlink:href="#premium-header-bg-d"/>
    </mask>
    <path fill="#DBF2FD" fill-rule="nonzero" d="M416.379743,149.231159 C420.233189,141.309935 428.364332,135.85 437.771848,135.85 C442.492356,135.85 446.891495,137.224723 450.590075,139.595319 C454.271469,123.837527 468.420903,112.1 485.314229,112.1 C491.157811,112.1 496.673074,113.504444 501.540318,115.993917 C509.065864,99.676405 525.580143,88.35 544.742207,88.35 C570.99914,88.35 592.284588,109.616474 592.284588,135.85 C592.284588,136.10393 592.284588,136.357394 592.27862,136.610379 L592.284588,136.61 C592.284588,168.98217 566.03934,195.225 533.664186,195.225 L354.57268,195.225 C378.331595,188.634019 393.846321,180.717353 401.116857,171.475 C407.841811,162.926195 412.929439,155.511581 416.379743,149.231159 Z" mask="url(#premium-header-bg-e)"/>
    <mask id="premium-header-bg-g" fill="#fff">
      <use xlink:href="#premium-header-bg-f"/>
    </mask>
    <path fill="#DBF2FD" fill-rule="nonzero" d="M121.66258,149.231159 C125.516026,141.309935 133.647169,135.85 143.054685,135.85 C147.775194,135.85 152.174332,137.224723 155.872912,139.595319 C159.554306,123.837527 173.70374,112.1 190.597067,112.1 C196.440648,112.1 201.955911,113.504444 206.823155,115.993917 C214.348701,99.676405 230.86298,88.35 250.025044,88.35 C276.281976,88.35 297.567426,109.616474 297.567426,135.85 C297.567426,136.10393 297.567426,136.357394 297.561457,136.610379 L297.567426,136.61 C297.567426,168.98217 271.322177,195.225 238.947023,195.225 L59.8555166,195.225 C83.6144326,188.634019 99.1291581,180.717353 106.399694,171.475 C113.124648,162.926195 118.212276,155.511581 121.66258,149.231159 Z" mask="url(#premium-header-bg-g)" transform="matrix(-1 0 0 1 357.423 0)"/>
  </g>
</svg>
