<?xml version="1.0" encoding="UTF-8"?>
<svg width="136px" height="136px" viewBox="0 0 136 136" version="1.1" xmlns="http://www.w3.org/2000/svg" xmlns:xlink="http://www.w3.org/1999/xlink">
    <!-- Generator: Sketch 52.6 (67491) - http://www.bohemiancoding.com/sketch -->
    <title>Who Viewed My Profile</title>
    <desc>Created with Sketch.</desc>
    <defs>
        <circle id="path-1" cx="64" cy="64" r="64"></circle>
        <path d="M4.02888794,1.54903578e-15 L78.4737664,-3.10862447e-15 C80.6829054,-3.51443672e-15 82.4737664,1.790861 82.4737664,4 C82.4737664,4.2357652 82.452922,4.47106879 82.4114767,4.70316255 L78.2513272,28 L82.4444948,52.3203723 C82.8198428,54.4973907 81.3593004,56.5664925 79.182282,56.9418405 C78.9578087,56.9805428 78.7304397,57 78.5026544,57 L4,57 C1.790861,57 2.705415e-16,55.209139 0,53 C-2.78956539e-17,52.7722147 0.0194572391,52.5448457 0.058159537,52.3203723 L4.25132718,28 L0.0911776369,4.70316255 C-0.297168318,2.5284252 1.15098804,0.450635653 3.32572538,0.062289698 C3.55781915,0.0208443824 3.79312274,-1.28895826e-15 4.02888794,-1.33226763e-15 Z" id="path-3"></path>
        <circle id="path-5" cx="17" cy="17" r="17"></circle>
        <filter x="-13.2%" y="-4.4%" width="117.6%" height="117.6%" filterUnits="objectBoundingBox" id="filter-7">
            <feOffset dx="-3" dy="3" in="SourceAlpha" result="shadowOffsetOuter1"></feOffset>
            <feColorMatrix values="0 0 0 0 0   0 0 0 0 0   0 0 0 0 0  0 0 0 0.0536118659 0" type="matrix" in="shadowOffsetOuter1"></feColorMatrix>
        </filter>
        <filter x="-25.0%" y="-16.2%" width="141.2%" height="141.2%" filterUnits="objectBoundingBox" id="filter-8">
            <feOffset dx="0" dy="-3" in="SourceAlpha" result="shadowOffsetInner1"></feOffset>
            <feComposite in="shadowOffsetInner1" in2="SourceAlpha" operator="arithmetic" k2="-1" k3="1" result="shadowInnerInner1"></feComposite>
            <feColorMatrix values="0 0 0 0 0.941176471   0 0 0 0 0.603921569   0 0 0 0 0.329411765  0 0 0 0.2 0" type="matrix" in="shadowInnerInner1" result="shadowMatrixInner1"></feColorMatrix>
            <feOffset dx="0" dy="-11" in="SourceAlpha" result="shadowOffsetInner2"></feOffset>
            <feComposite in="shadowOffsetInner2" in2="SourceAlpha" operator="arithmetic" k2="-1" k3="1" result="shadowInnerInner2"></feComposite>
            <feColorMatrix values="0 0 0 0 0.941176471   0 0 0 0 0.603921569   0 0 0 0 0.329411765  0 0 0 0.2 0" type="matrix" in="shadowInnerInner2" result="shadowMatrixInner2"></feColorMatrix>
            <feMerge>
                <feMergeNode in="shadowMatrixInner1"></feMergeNode>
                <feMergeNode in="shadowMatrixInner2"></feMergeNode>
            </feMerge>
        </filter>
        <filter x="-10.4%" y="-17.9%" width="120.8%" height="135.7%" filterUnits="objectBoundingBox" id="filter-9">
            <feOffset dx="0" dy="1" in="SourceAlpha" result="shadowOffsetOuter1"></feOffset>
            <feColorMatrix values="0 0 0 0 0.906382866   0 0 0 0 0.674815338   0 0 0 0 0.353608767  0 0 0 1 0" type="matrix" in="shadowOffsetOuter1" result="shadowMatrixOuter1"></feColorMatrix>
            <feMerge>
                <feMergeNode in="shadowMatrixOuter1"></feMergeNode>
                <feMergeNode in="SourceGraphic"></feMergeNode>
            </feMerge>
        </filter>
        <circle id="path-10" cx="10" cy="10" r="10"></circle>
    </defs>
    <g id="Who-Viewed-My-Profile" stroke="none" stroke-width="1" fill="none" fill-rule="evenodd">
        <g id="Group-2" transform="translate(4.000000, 4.000000)">
            <g id="Group-6">
                <g id="Group-4">
                    <mask id="mask-2" fill="white">
                        <use xlink:href="#path-1"></use>
                    </mask>
                    <use id="Oval-6" fill="#BFE9FD" xlink:href="#path-1"></use>
                    <path d="M35.4084049,65.0229885 C35.7926376,64.35991 36.5107974,63.9137931 37.3333333,63.9137931 C37.7746246,63.9137931 38.185873,64.0422004 38.5316305,64.2636281 C38.8757813,62.7917569 40.1985247,61.6954023 41.7777778,61.6954023 C42.3240582,61.6954023 42.8396461,61.8265857 43.2946549,62.0591172 C43.9981716,60.5349649 45.54199,59.4770115 47.3333333,59.4770115 C49.7879322,59.4770115 51.7777778,61.4634263 51.7777778,63.9137931 C51.7777778,64.2967978 51.7291633,64.6684676 51.6377583,65.0229885 L51.7777778,65.0229885 C51.7777778,67.4733553 49.791363,69.4597701 47.3409962,69.4597701 L29.5555556,69.4597701 C31.6479017,68.6264528 33.0982779,67.8869892 33.906684,67.2413793 C34.7150902,66.5957694 35.1165659,65.8563058 35.1111111,65.0229885 L35.4084049,65.0229885 Z" id="Combined-Shape" fill="#FFFFFF" mask="url(#mask-2)"></path>
                    <path d="M111.066901,84.9904215 C111.727781,83.7959639 112.963016,82.9923372 114.377778,82.9923372 C115.136799,82.9923372 115.844146,83.2236476 116.438849,83.6225235 C117.030788,80.9711217 119.305907,78.9961686 122.022222,78.9961686 C122.961825,78.9961686 123.848636,79.2324799 124.631251,79.651358 C125.8413,76.9057779 128.496667,75 131.577778,75 C135.799688,75 139.222222,78.5782912 139.222222,82.9923372 C139.222222,83.6822748 139.138605,84.3517939 138.981389,84.9904215 L139.222222,84.9904215 C139.222222,89.4044674 135.643931,92.9827586 131.229885,92.9827586 L101,92.9827586 C104.598835,91.481636 107.093482,90.1495798 108.483941,88.98659 C109.8744,87.8236002 110.564938,86.491544 110.555556,84.9904215 L111.066901,84.9904215 Z" id="Combined-Shape" fill="#FFFFFF" mask="url(#mask-2)"></path>
                    <path d="M47.3210773,21.9643144 C47.7360486,21.2143061 48.5116612,20.7097033 49.4,20.7097033 C49.8765946,20.7097033 50.3207428,20.8549447 50.6941609,21.1054017 C51.0658438,19.440568 52.4944067,18.2004812 54.2,18.2004812 C54.7899828,18.2004812 55.3468178,18.3488627 55.8382273,18.6118792 C56.5980254,16.8879103 58.2653492,15.691259 60.2,15.691259 C62.8509668,15.691259 65,17.9380931 65,20.7097033 C65,21.1429199 64.9474964,21.5633157 64.848779,21.9643144 L65,21.9643144 C65,24.7359246 62.753166,26.9827586 59.9815557,26.9827586 L41,26.9827586 C43.2597339,26.0401933 44.8261401,25.2037859 45.6992188,24.4735365 C46.5722974,23.7432871 47.0058911,22.9068797 47,21.9643144 L47.3210773,21.9643144 Z" id="Combined-Shape" fill="#FFFFFF" mask="url(#mask-2)"></path>
                    <path d="M93.4816159,62.409583 C94.1040729,61.2845707 95.2674918,60.5276664 96.6,60.5276664 C97.3148919,60.5276664 97.9811142,60.7455286 98.5412414,61.121214 C99.0987657,58.6239635 101.24161,56.7638332 103.8,56.7638332 C104.684974,56.7638332 105.520227,56.9864055 106.257341,57.3809302 C107.397038,54.7949769 109.898024,53 112.8,53 C116.77645,53 120,56.370251 120,60.5276664 C120,61.1774914 119.921245,61.808085 119.773169,62.409583 L120,62.409583 C120,66.5669984 116.629749,69.9372494 112.472334,69.9372494 L84,69.9372494 C87.3896008,68.5234014 89.7392102,67.2687903 91.0488281,66.1734162 C92.3584461,65.0780421 93.0088367,63.823431 93,62.409583 L93.4816159,62.409583 Z" id="Combined-Shape" fill-opacity="0.5" fill="#FFFFFF" mask="url(#mask-2)"></path>
                    <path d="M-8.93309916,87.9904215 C-8.27221894,86.7959639 -7.03698406,85.9923372 -5.62222222,85.9923372 C-4.86320122,85.9923372 -4.15585405,86.2236476 -3.56115108,86.6225235 C-2.9692117,83.9711217 -0.694092991,81.9961686 2.02222222,81.9961686 C2.96182452,81.9961686 3.84863581,82.2324799 4.63125088,82.651358 C5.84129968,79.9057779 8.4966672,78 11.5777778,78 C15.7996879,78 19.2222222,81.5782912 19.2222222,85.9923372 C19.2222222,86.6822748 19.1386054,87.3517939 18.9813888,87.9904215 L19.2222222,87.9904215 C19.2222222,92.4044674 15.643931,95.9827586 11.2298851,95.9827586 L-19,95.9827586 C-15.4011646,94.481636 -12.9065176,93.1495798 -11.516059,91.98659 C-10.1256005,90.8236002 -9.43506227,89.491544 -9.44444444,87.9904215 L-8.93309916,87.9904215 Z" id="Combined-Shape" fill="#FFFFFF" mask="url(#mask-2)"></path>
                    <path d="M-29,109.205974 C-29,109.205974 -0.449032738,83.9809 26.9188988,87.3012125 C54.2868304,90.621525 73.1837798,107.676103 104.370536,105.22718 C125.161706,103.594564 143.281746,98.7136118 158.730655,90.5843226 L158.730655,130.965647 L-16.3790923,126.516242 C-24.7930308,114.976064 -29,109.205974 -29,109.205974 Z" id="Path-7" fill="#68CD8E" mask="url(#mask-2)" transform="translate(64.865327, 108.982823) scale(-1, 1) translate(-64.865327, -108.982823) "></path>
                    <g id="Rectangle-2" mask="url(#mask-2)">
                        <g transform="translate(23.000000, 36.000000)">
                            <mask id="mask-4" fill="white">
                                <use xlink:href="#path-3"></use>
                            </mask>
                            <use id="Mask" stroke="none" fill="#FFFFFF" fill-rule="evenodd" xlink:href="#path-3"></use>
                            <rect id="Rectangle-2" stroke="none" fill-opacity="0.64" fill="#D7E1F1" fill-rule="evenodd" mask="url(#mask-4)" transform="translate(47.000000, 43.000000) rotate(-180.000000) translate(-47.000000, -43.000000) " x="-1" y="29" width="96" height="28"></rect>
                            <polygon id="Rectangle-2" stroke="none" fill="#D7E1F1" fill-rule="evenodd" mask="url(#mask-4)" transform="translate(47.000000, 43.000000) rotate(-180.000000) translate(-47.000000, -43.000000) " points="-1 29 95 57 -1 57"></polygon>
                            <rect id="Rectangle" stroke="none" fill="#B5C2D7" fill-rule="evenodd" mask="url(#mask-4)" x="7" y="34" width="68" height="4" rx="2"></rect>
                            <rect id="Rectangle" stroke="none" fill="#B5C2D7" fill-rule="evenodd" mask="url(#mask-4)" x="7" y="42" width="44" height="4" rx="2"></rect>
                        </g>
                    </g>
                    <path d="M69,105.25978 C98.9492188,103.149102 116.212565,99.743829 120.790039,95.0439592 C125.367513,90.3440894 125.994141,93.7493628 122.669922,105.25978 L85.0283203,110.778334 L69,105.25978 Z" id="Path-8" fill="#63BF85" mask="url(#mask-2)"></path>
                    <path d="M-39,109.205974 C-39,109.205974 -10.4490327,83.9809 16.9188988,87.3012125 C44.2868304,90.621525 63.1837798,107.676103 94.3705357,105.22718 C115.161706,103.594564 133.281746,98.7136118 148.730655,90.5843226 L148.730655,130.965647 L-26.3790923,126.516242 C-34.7930308,114.976064 -39,109.205974 -39,109.205974 Z" id="Path-7" fill="#91E3AF" mask="url(#mask-2)"></path>
                    <path d="M9.6171875,102 C26.7356771,104.00651 42.8808594,110.209635 58.0527344,120.609375 L82.9609375,140.447266 L7,125.6875 L9.6171875,102 Z" id="Path-10" fill="#A7E8BF" mask="url(#mask-2)"></path>
                </g>
            </g>
            <g id="Rectangle-4" transform="translate(80.000000, 26.000000)">
                <mask id="mask-6" fill="white">
                    <use xlink:href="#path-5"></use>
                </mask>
                <g id="Mask">
                    <use fill="black" fill-opacity="1" filter="url(#filter-7)" xlink:href="#path-5"></use>
                    <use fill="#FFCE6E" fill-rule="evenodd" xlink:href="#path-5"></use>
                    <use fill="black" fill-opacity="1" filter="url(#filter-8)" xlink:href="#path-5"></use>
                </g>
                <ellipse id="Oval-3" fill-opacity="0.25" fill="#FFFFFF" mask="url(#mask-6)" cx="14.9885714" cy="2.45402299" rx="9.41142857" ry="8.06321839"></ellipse>
            </g>
            <g id="Group-5" filter="url(#filter-9)" transform="translate(86.000000, 36.000000)" fill="#FFFFFF">
                <path d="M24,7 C20.859375,11.6666667 16.859375,14 12,14 C7.140625,14 3.140625,11.6666667 0,7 C3.140625,2.33333333 7.140625,0 12,0 C16.859375,0 20.859375,2.33333333 24,7 Z M12,11.6666667 C14.6509668,11.6666667 16.8,9.57732883 16.8,7 C16.8,4.42267117 14.6509668,2.33333333 12,2.33333333 C9.3490332,2.33333333 7.2,4.42267117 7.2,7 C7.2,9.57732883 9.3490332,11.6666667 12,11.6666667 Z" id="Combined-Shape"></path>
                <path d="M12,4.66666667 C12,5.95533108 13.0745166,7 14.4,7 C14.4,8.28866442 13.3254834,9.33333333 12,9.33333333 C10.6745166,9.33333333 9.6,8.28866442 9.6,7 C9.6,5.71133558 10.6745166,4.66666667 12,4.66666667 Z" id="Combined-Shape"></path>
            </g>
            <g id="Oval-10" transform="translate(54.000000, 40.000000)">
                <g id="Group">
                    <mask id="mask-11" fill="white">
                        <use xlink:href="#path-10"></use>
                    </mask>
                    <use id="Mask" fill="#2E546E" xlink:href="#path-10"></use>
                    <circle id="Oval-10" fill="#FFFFFF" mask="url(#mask-11)" cx="10" cy="8" r="3"></circle>
                    <circle id="Oval-10" fill="#FFFFFF" mask="url(#mask-11)" cx="10" cy="19" r="6"></circle>
                </g>
            </g>
        </g>
    </g>
</svg>