<?xml version="1.0" encoding="UTF-8"?>
<svg width="136px" height="136px" viewBox="0 0 136 136" version="1.1" xmlns="http://www.w3.org/2000/svg" xmlns:xlink="http://www.w3.org/1999/xlink">
    <!-- Generator: Sketch 52.6 (67491) - http://www.bohemiancoding.com/sketch -->
    <title>Call Recording</title>
    <desc>Created with Sketch.</desc>
    <defs>
        <circle id="path-1" cx="64" cy="64" r="64"></circle>
        <rect id="path-3" x="0" y="0" width="40.9411765" height="58.5267857" rx="20.4705882"></rect>
        <path d="M6.82352941,9.17857143 C6.82352941,21.3584226 16.7522735,31.2321429 29,31.2321429 C41.2477265,31.2321429 51.1764706,21.3584226 51.1764706,9.17857143 L6.82352941,9.17857143 Z M51.3312139,2.39285714 C51.7645333,1.00628145 53.0588695,2.80939942e-16 54.5882353,0 C56.1176011,-2.80939942e-16 57.4119373,1.00628145 57.8452566,2.39285714 L58,2.39285714 L58,9.17857143 C58,25.1060691 45.0162577,38.0178571 29,38.0178571 C12.9837423,38.0178571 3.03025578e-15,25.1060691 0,9.17857143 L0,2.39285714 L0.154743361,2.39285714 C0.588062712,1.00628145 1.8823989,2.80939942e-16 3.41176471,0 C4.94113052,-2.80939942e-16 6.2354667,1.00628145 6.66878605,2.39285714 L6.82352941,2.39285714 L6.82352941,9.17857143 L51.1764706,9.17857143 L51.1764706,2.39285714 L51.3312139,2.39285714 Z" id="path-5"></path>
        <ellipse id="path-7" cx="10.2352941" cy="10.1785714" rx="10.2352941" ry="10.1785714"></ellipse>
        <path d="M1.7,0 L9.38823529,0 C10.3271194,-1.72470207e-16 11.0882353,0.761115925 11.0882353,1.7 L11.0882353,18.2058824 C11.0882353,21.267814 8.60604927,23.75 5.54411765,23.75 L5.54411765,23.75 C2.48218602,23.75 -5.13199943e-16,21.267814 -8.8817842e-16,18.2058824 L0,1.7 C-1.14980138e-16,0.761115925 0.761115925,1.50473784e-15 1.7,1.33226763e-15 Z" id="path-9"></path>
    </defs>
    <g id="Call-Recording" stroke="none" stroke-width="1" fill="none" fill-rule="evenodd">
        <g id="Cal-rec" transform="translate(4.000000, 4.000000)">
            <g id="Group-6">
                <g id="Group-4">
                    <mask id="mask-2" fill="white">
                        <use xlink:href="#path-1"></use>
                    </mask>
                    <use id="Oval-6" fill="#BFE9FD" xlink:href="#path-1"></use>
                    <path d="M78.9670284,56.4444444 C79.6213521,55.3152641 80.8443324,54.5555556 82.2450585,54.5555556 C82.9965494,54.5555556 83.6968791,54.7742249 84.285682,55.1513022 C84.8717489,52.6447996 87.1242964,50.7777778 89.8136634,50.7777778 C90.743944,50.7777778 91.6219574,51.0011747 92.3968082,51.3971611 C93.5948523,48.8016271 96.2238762,47 99.2744195,47 C103.454445,47 106.843024,50.3827374 106.843024,54.5555556 C106.843024,55.2077881 106.760237,55.8407179 106.60458,56.4444444 L106.843024,56.4444444 C106.843024,60.6172626 103.460287,64 99.2874688,64 L69,64 C72.5631318,62.5809138 75.0330297,61.3216546 76.4096937,60.2222222 C77.7863577,59.1227899 78.4700452,57.8635306 78.4607561,56.4444444 L78.9670284,56.4444444 Z" id="Combined-Shape" fill="#FFFFFF" mask="url(#mask-2)"></path>
                    <path d="M16.8528493,15.545977 C17.237082,14.8828985 17.9552418,14.4367816 18.7777778,14.4367816 C19.2190691,14.4367816 19.6303174,14.5651889 19.976075,14.7866166 C20.3202258,13.3147454 21.6429692,12.2183908 23.2222222,12.2183908 C23.7685026,12.2183908 24.2840906,12.3495742 24.7390994,12.5821057 C25.4426161,11.0579534 26.9864344,10 28.7777778,10 C31.2323767,10 33.2222222,11.9864148 33.2222222,14.4367816 C33.2222222,14.8197863 33.1736078,15.1914561 33.0822028,15.545977 L33.2222222,15.545977 C33.2222222,17.9963438 31.2358074,19.9827586 28.7854406,19.9827586 L11,19.9827586 C13.0923462,19.1494413 14.5427223,18.4099777 15.3511285,17.7643678 C16.1595346,17.1187579 16.5610103,16.3792943 16.5555556,15.545977 L16.8528493,15.545977 Z" id="Combined-Shape" fill="#FFFFFF" mask="url(#mask-2)"></path>
                    <path d="M105.066901,85.9904215 C105.727781,84.7959639 106.963016,83.9923372 108.377778,83.9923372 C109.136799,83.9923372 109.844146,84.2236476 110.438849,84.6225235 C111.030788,81.9711217 113.305907,79.9961686 116.022222,79.9961686 C116.961825,79.9961686 117.848636,80.2324799 118.631251,80.651358 C119.8413,77.9057779 122.496667,76 125.577778,76 C129.799688,76 133.222222,79.5782912 133.222222,83.9923372 C133.222222,84.6822748 133.138605,85.3517939 132.981389,85.9904215 L133.222222,85.9904215 C133.222222,90.4044674 129.643931,93.9827586 125.229885,93.9827586 L95,93.9827586 C98.5988354,92.481636 101.093482,91.1495798 102.483941,89.98659 C103.8744,88.8236002 104.564938,87.491544 104.555556,85.9904215 L105.066901,85.9904215 Z" id="Combined-Shape" fill="#FFFFFF" mask="url(#mask-2)"></path>
                    <path d="M27.1500915,85.7176724 C28.1153331,82.9914613 30.7197996,81.0382543 33.78125,81.0382543 C35.6476581,81.0382543 37.3442186,81.7642049 38.6030489,82.9486854 C39.4605245,77.8927527 44.3205143,74.0191272 50.1875,74.0191272 C51.5953754,74.0191272 52.9452643,74.2421842 54.1957746,74.6511095 C56.7185656,70.1090083 61.8480859,67 67.765625,67 C76.179338,67 83,73.2851405 83,81.0382543 C83,82.6790241 82.6945293,84.254049 82.1331351,85.7176724 L83,85.7176724 C83,93.4707862 76.7148595,99.7559267 68.9617457,99.7559267 L8,99.7559267 C15.0616683,97.1192586 19.9566879,94.7795495 22.6850586,92.7367996 C25.4134293,90.6940496 26.7684098,88.3543405 26.75,85.7176724 L27.1500915,85.7176724 Z" id="Combined-Shape" fill-opacity="0.5" fill="#FFFFFF" mask="url(#mask-2)"></path>
                    <path d="M28.0785619,34.8735632 C28.5361579,33.5811372 29.770868,32.6551724 31.2222222,32.6551724 C32.1070379,32.6551724 32.9113332,32.9993268 33.5081121,33.5608583 C33.914619,31.1639716 36.2186142,29.3275862 39,29.3275862 C39.6674372,29.3275862 40.3073846,29.4333318 40.9002191,29.6271927 C42.0962089,27.4739002 44.5279815,26 47.3333333,26 C51.3220565,26 54.5555556,28.9796222 54.5555556,32.6551724 C54.5555556,33.4330188 54.4107398,34.1796973 54.1445974,34.8735632 L54.5555556,34.8735632 C54.5555556,38.5491135 51.5759334,41.5287356 47.9003831,41.5287356 L19,41.5287356 C22.3477539,40.2787596 24.6683557,39.1695642 25.9618056,38.2011494 C27.2552554,37.2327346 27.8976165,36.1235392 27.8888889,34.8735632 L28.0785619,34.8735632 Z" id="Combined-Shape" fill-opacity="0.5" fill="#FFFFFF" mask="url(#mask-2)"></path>
                    <path d="M-29,109.205974 C-29,109.205974 -0.449032738,83.9809 26.9188988,87.3012125 C54.2868304,90.621525 73.1837798,107.676103 104.370536,105.22718 C125.161706,103.594564 143.281746,98.7136118 158.730655,90.5843226 L158.730655,130.965647 L-16.3790923,126.516242 C-24.7930308,114.976064 -29,109.205974 -29,109.205974 Z" id="Path-7" fill="#68CD8E" mask="url(#mask-2)" transform="translate(64.865327, 108.982823) scale(-1, 1) translate(-64.865327, -108.982823) "></path>
                    <path d="M69,105.25978 C98.9492188,103.149102 116.212565,99.743829 120.790039,95.0439592 C125.367513,90.3440894 125.994141,93.7493628 122.669922,105.25978 L85.0283203,110.778334 L69,105.25978 Z" id="Path-8" fill="#63BF85" mask="url(#mask-2)"></path>
                    <path d="M-39,109.205974 C-39,109.205974 -10.4490327,83.9809 16.9188988,87.3012125 C44.2868304,90.621525 63.1837798,107.676103 94.3705357,105.22718 C115.161706,103.594564 133.281746,98.7136118 148.730655,90.5843226 L148.730655,130.965647 L-26.3790923,126.516242 C-34.7930308,114.976064 -39,109.205974 -39,109.205974 Z" id="Path-7" fill="#91E3AF" mask="url(#mask-2)"></path>
                    <path d="M9.6171875,102 C26.7356771,104.00651 42.8808594,110.209635 58.0527344,120.609375 L82.9609375,140.447266 L7,125.6875 L9.6171875,102 Z" id="Path-10" fill="#A7E8BF" mask="url(#mask-2)"></path>
                </g>
            </g>
            <g id="Group" transform="translate(35.000000, 18.000000)">
                <rect id="Rectangle-14" fill="#607087" x="27.2941176" y="65.3125" width="4.26470588" height="5.9375"></rect>
                <rect id="Rectangle-14" fill="#4B5B73" x="27.2941176" y="65.3125" width="2.55882353" height="5.9375"></rect>
                <g id="Rectangle-7-+-Path-Mask" transform="translate(8.529412, 0.848214)">
                    <mask id="mask-4" fill="white">
                        <use xlink:href="#path-3"></use>
                    </mask>
                    <use id="Mask" fill="#2E546E" xlink:href="#path-3"></use>
                    <rect id="Rectangle-7" fill-opacity="0.05" fill="#FFFFFF" mask="url(#mask-4)" x="6.82352941" y="0" width="34.1176471" height="51.7410714" rx="17.0588235"></rect>
                    <rect id="Path" fill-opacity="0.05" fill="#FFFFFF" mask="url(#mask-4)" x="15.3529412" y="0" width="25.5882353" height="31.3839286" rx="12.7941176"></rect>
                </g>
                <g id="Rectangle-2" transform="translate(0.000000, 29.839286)">
                    <g id="Rectangle-10">
                        <mask id="mask-6" fill="white">
                            <use xlink:href="#path-5"></use>
                        </mask>
                        <use id="Mask" fill="#8DA1BE" fill-rule="nonzero" xlink:href="#path-5"></use>
                        <polygon fill="#72849F" mask="url(#mask-6)" points="-0.852941176 -1 29.8529412 -1 29.8529412 38.0178571 -0.852941176 38.0178571"></polygon>
                    </g>
                </g>
                <g id="Oval-5-+-Oval-5-Mask" transform="translate(34.970588, 0.000000)">
                    <g id="Group-2">
                        <mask id="mask-8" fill="white">
                            <use xlink:href="#path-7"></use>
                        </mask>
                        <use id="Mask" fill="#FC513D" xlink:href="#path-7"></use>
                        <ellipse id="Oval-5" fill-opacity="0.15" fill="#FFFFFF" mask="url(#mask-8)" cx="12.7941176" cy="7.63392857" rx="7.67647059" ry="7.63392857"></ellipse>
                        <ellipse id="Oval-5" fill-opacity="0.15" fill="#FFFFFF" mask="url(#mask-8)" cx="15.3529412" cy="5.08928571" rx="5.11764706" ry="5.08928571"></ellipse>
                    </g>
                </g>
                <g id="Rectangle-3" transform="translate(23.882353, 71.250000)">
                    <mask id="mask-10" fill="white">
                        <use xlink:href="#path-9"></use>
                    </mask>
                    <use id="Mask" fill="#C37447" xlink:href="#path-9"></use>
                    <ellipse id="Oval-2" fill="#DA8555" mask="url(#mask-10)" cx="11.9411765" cy="11.0462849" rx="3.41176471" ry="3.41235632"></ellipse>
                    <ellipse id="Oval-2" fill="#DA8555" mask="url(#mask-10)" cx="5.11764706" cy="0.867713465" rx="3.41176471" ry="3.41235632"></ellipse>
                    <ellipse id="Oval-2" fill="#DA8555" mask="url(#mask-10)" cx="-4.4408921e-16" cy="21.2248563" rx="3.41176471" ry="3.41235632"></ellipse>
                    <rect fill-opacity="0.2" fill="#000000" mask="url(#mask-10)" x="0" y="0" width="5.97058824" height="23.75"></rect>
                </g>
            </g>
        </g>
    </g>
</svg>