<svg xmlns="http://www.w3.org/2000/svg" xmlns:xlink="http://www.w3.org/1999/xlink" width="345" height="147" viewBox="0 0 345 147">
  <defs>
    <linearGradient id="gold-header-bg-a" x1="-.49%" x2="99.51%" y1="99.436%" y2=".564%">
      <stop offset="0%" stop-color="#FEC240"/>
      <stop offset="49.458%" stop-color="#FDEA8A"/>
      <stop offset="100%" stop-color="#B97B1D"/>
    </linearGradient>
    <rect id="gold-header-bg-b" width="560" height="147" x="0" y="0"/>
    <rect id="gold-header-bg-d" width="560" height="147" x="0" y="0"/>
    <linearGradient id="gold-header-bg-e" x1="50%" x2="50%" y1="0%" y2="100%">
      <stop offset="0%" stop-color="#FFF8E6"/>
      <stop offset="100%" stop-color="#FDE17A"/>
    </linearGradient>
    <rect id="gold-header-bg-g" width="560" height="147" x="0" y="0"/>
    <rect id="gold-header-bg-i" width="560" height="147" x="0" y="0"/>
    <linearGradient id="gold-header-bg-j" x1="50%" x2="50%" y1="0%" y2="100%">
      <stop offset="0%" stop-color="#FFF8E6"/>
      <stop offset="100%" stop-color="#FDE17A"/>
    </linearGradient>
  </defs>
  <g fill="none" fill-rule="evenodd" transform="translate(-117 -.37)">
    <rect width="560" height="147" fill="url(#gold-header-bg-a)" fill-rule="nonzero" transform="translate(0 .37)"/>
    <g transform="translate(0 .37)">
      <mask id="gold-header-bg-c" fill="#fff">
        <use xlink:href="#gold-header-bg-b"/>
      </mask>
      <g fill-opacity=".2" mask="url(#gold-header-bg-c)">
        <g transform="translate(153.485 55.125)">
          <path fill="#FFF" fill-rule="nonzero" d="M102.449327,52.336435 C105.76412,45.5269616 112.758651,40.8333333 120.851138,40.8333333 C124.911791,40.8333333 128.695996,42.0151125 131.877571,44.0529933 C135.044361,30.5068215 147.215917,20.4166667 161.747811,20.4166667 C166.774547,20.4166667 171.51886,21.6239957 175.705737,23.7640691 C182.179324,9.7367339 196.385156,0 212.868651,0 C235.45526,0 253.765324,18.2817061 253.765324,40.8333333 C253.765324,41.051624 253.765324,41.2695146 253.76019,41.4869923 L253.765324,41.4866667 C253.765324,69.3153745 231.188766,91.875 203.339171,91.875 L49.2819615,91.875 C69.7197386,86.2090692 83.0657391,79.4035136 89.3199637,71.4583332 C95.1048701,64.1093602 99.4813246,57.7353942 102.449327,52.336435 Z"/>
          <path fill="#FFF" fill-rule="nonzero" d="M53.167366,52.336435 C56.482159,45.5269616 63.4766899,40.8333333 71.5691769,40.8333333 C75.6298296,40.8333333 79.4140345,42.0151125 82.5956092,44.0529933 C85.7623994,30.5068215 97.9339558,20.4166667 112.465849,20.4166667 C117.492586,20.4166667 122.236898,21.6239957 126.423775,23.7640691 C132.897363,9.7367339 147.103194,0 163.58669,0 C186.173298,0 204.483363,18.2817061 204.483363,40.8333333 C204.483363,41.051624 204.483363,41.2695146 204.478228,41.4869923 L204.483363,41.4866667 C204.483363,69.3153745 181.906805,91.875 154.05721,91.875 L0,91.875 C20.4377771,86.2090692 33.7837778,79.4035136 40.0380021,71.4583332 C45.8229087,64.1093602 50.1993631,57.7353942 53.167366,52.336435 Z" transform="matrix(-1 0 0 1 204.483 0)"/>
        </g>
      </g>
    </g>
    <g transform="translate(0 .37)">
      <mask id="gold-header-bg-f" fill="#fff">
        <use xlink:href="#gold-header-bg-d"/>
      </mask>
      <path fill="url(#gold-header-bg-e)" fill-rule="nonzero" d="M358.176123,128.286435 C361.490916,121.476962 368.485447,116.783333 376.577933,116.783333 C380.638586,116.783333 384.422791,117.965113 387.604366,120.002993 C390.771156,106.456821 402.942712,96.3666668 417.474606,96.3666668 C422.501342,96.3666668 427.245655,97.5739955 431.432532,99.714069 C437.906119,85.6867341 452.111951,75.95 468.595447,75.95 C491.182056,75.95 509.492119,94.231706 509.492119,116.783333 C509.492119,117.001624 509.492119,117.219515 509.486985,117.436992 L509.492119,117.436667 C509.492119,145.265375 486.915561,167.825 459.065966,167.825 L305.008757,167.825 C325.446534,162.159069 338.792534,155.353514 345.046759,147.408333 C350.831665,140.05936 355.20812,133.685394 358.176123,128.286435 Z" mask="url(#gold-header-bg-f)"/>
    </g>
    <g transform="translate(0 .37)">
      <mask id="gold-header-bg-h" fill="#fff">
        <use xlink:href="#gold-header-bg-g"/>
      </mask>
      <path fill="url(#gold-header-bg-e)" fill-rule="nonzero" d="M104.655982,128.286435 C107.970775,121.476962 114.965306,116.783333 123.057793,116.783333 C127.118446,116.783333 130.902651,117.965113 134.084226,120.002993 C137.251016,106.456821 149.422572,96.3666668 163.954466,96.3666668 C168.981202,96.3666668 173.725515,97.5739955 177.912392,99.714069 C184.385979,85.6867341 198.591811,75.95 215.075306,75.95 C237.661915,75.95 255.971979,94.231706 255.971979,116.783333 C255.971979,117.001624 255.971979,117.219515 255.966845,117.436992 L255.971979,117.436667 C255.971979,145.265375 233.395421,167.825 205.545826,167.825 L51.4886165,167.825 C71.9263936,162.159069 85.272394,155.353514 91.5266187,147.408333 C97.3115251,140.05936 101.68798,133.685394 104.655982,128.286435 Z" mask="url(#gold-header-bg-h)" transform="matrix(-1 0 0 1 307.46 0)"/>
    </g>
    <g transform="translate(0 .37)">
      <mask id="gold-header-bg-k" fill="#fff">
        <use xlink:href="#gold-header-bg-i"/>
      </mask>
      <path fill="url(#gold-header-bg-j)" fill-rule="nonzero" d="M491.90988,140.069578 C497.95253,129.293409 509.491084,122.01 522.732049,122.01 C534.85702,122.01 545.554462,128.117409 551.911487,137.421529 C556.384234,135.088868 561.470554,133.77 566.865149,133.77 C584.739442,133.77 599.229422,148.249111 599.229422,166.11 C599.229422,183.970889 584.739442,198.45 566.865149,198.45 C556.885954,198.45 547.961638,193.936897 542.024819,186.841853 C536.479274,190.464181 529.851767,192.57 522.732049,192.57 C513.919243,192.57 505.860578,189.343557 499.67452,184.008299 C493.874916,192.713663 483.965126,198.45 472.714536,198.45 C454.840242,198.45 440.350263,183.970889 440.350263,166.11 C440.350263,148.249111 454.840242,133.77 472.714536,133.77 C479.900527,133.77 486.539519,136.110224 491.90988,140.069578 Z" mask="url(#gold-header-bg-k)"/>
    </g>
  </g>
</svg>
