<?xml version="1.0" encoding="UTF-8"?>
<svg width="324px" height="334px" viewBox="0 0 324 334" version="1.1" xmlns="http://www.w3.org/2000/svg" xmlns:xlink="http://www.w3.org/1999/xlink">
    <!-- Generator: Sketch 52.5 (67469) - http://www.bohemiancoding.com/sketch -->
    <title>gold_badge</title>
    <desc>Created with Sketch.</desc>
    <defs>
        <linearGradient x1="50%" y1="0%" x2="50%" y2="100%" id="linearGradient-1">
            <stop stop-color="#976A00" offset="0%"></stop>
            <stop stop-color="#5D3800" offset="100%"></stop>
        </linearGradient>
        <circle id="path-2" cx="98.1530172" cy="98.1530172" r="98.1530172"></circle>
        <linearGradient x1="-0.489700672%" y1="99.5102993%" x2="99.5102993%" y2="0.489700672%" id="linearGradient-4">
            <stop stop-color="#FEC240" offset="0%"></stop>
            <stop stop-color="#FDEA8A" offset="49.4580925%"></stop>
            <stop stop-color="#B97B1D" offset="100%"></stop>
        </linearGradient>
        <linearGradient x1="50%" y1="0%" x2="50%" y2="45.6280048%" id="linearGradient-5">
            <stop stop-color="#FFFFFF" offset="0%"></stop>
            <stop stop-color="#F7EDBB" offset="100%"></stop>
        </linearGradient>
    </defs>
    <g id="gold_badge" stroke="none" stroke-width="1" fill="none" fill-rule="evenodd">
        <g id="Group-11">
            <g id="Group-6" transform="translate(69.000000, 0.000000)">
                <g id="Group-4">
                    <path d="M37.509142,102.753772 C38.3556546,101.292927 39.9378505,100.310075 41.75,100.310075 C42.7222198,100.310075 43.6282514,100.592973 44.3899985,101.080806 C45.1482057,97.8380894 48.0623748,95.4226832 51.5416667,95.4226832 C52.7451907,95.4226832 53.8810954,95.7116966 54.8835366,96.2239927 C56.4334719,92.8660946 59.8346967,90.5352909 63.78125,90.5352909 C69.1890382,90.5352909 73.5729167,94.911611 73.5729167,100.310075 C73.5729167,101.153883 73.465813,101.972718 73.2644364,102.753772 L73.5729167,102.753772 C73.5729167,108.152236 69.1965966,112.528556 63.7981322,112.528556 L24.6145833,112.528556 C29.2242835,110.692654 32.4196435,109.063523 34.2006632,107.641164 C35.981683,106.218805 36.8661842,104.589674 36.8541667,102.753772 L37.509142,102.753772 Z" id="Combined-Shape" fill="#FFFFFF"></path>
                    <g id="Group" transform="translate(0.625000, 0.625000)">
                        <g id="Group-3">
                            <g id="Oval-3">
                                <mask id="mask-3" fill="white">
                                    <use xlink:href="#path-2"></use>
                                </mask>
                                <use id="Mask" fill="url(#linearGradient-1)" xlink:href="#path-2"></use>
                            </g>
                            <g id="CROWN" transform="translate(43.413835, 52.851625)">
                                <path d="M109.478365,64.7162751 L109.478365,76.0416232 L109.452947,76.0416232 C108.562834,84.1249601 84.4073421,90.6027851 54.7391827,90.6027851 C25.0710233,90.6027851 0.915531779,84.1249601 0.0254183025,76.0416232 L0,76.0416232 L0,64.7162751 L0,66.334182 L0.0254183025,66.334182 C0.915531779,74.4175189 25.0710233,80.8953439 54.7391827,80.8953439 C84.4073421,80.8953439 108.562834,74.4175189 109.452947,66.334182 L109.478365,66.334182 L109.478365,64.7162751 Z" id="Combined-Shape" fill="url(#linearGradient-4)"></path>
                                <path d="M30.4106571,3.23581376 L54.7391827,36.0562104 L6.08213141,36.0562104 L30.4106571,3.23581376 Z M79.0677083,3.23581376 L103.396234,36.0562104 L54.7391827,36.0562104 L79.0677083,3.23581376 Z" id="Combined-Shape" fill-opacity="0.5" fill="url(#linearGradient-4)"></path>
                                <path d="M109.478365,37.6741173 L109.478365,60.2092488 L109.400363,60.2092488 C109.452146,60.4770989 109.478365,60.7468102 109.478365,61.0182022 C109.478365,69.3154086 84.9707985,76.0416232 54.7391827,76.0416232 C24.5075669,76.0416232 0,69.3154086 0,61.0182022 C0,60.7468102 0.0262198748,60.4770989 0.0780023109,60.2092488 L0,60.2092488 L0,37.6741173 L0,0 L36.4927885,28.255588 L54.7391827,0 L72.9855769,28.255588 L109.478365,0 L109.478365,37.6741173 Z" id="Combined-Shape" fill="url(#linearGradient-4)"></path>
                                <polygon id="Rectangle-9" fill="#7B5200" transform="translate(53.520365, 53.046519) rotate(-315.000000) translate(-53.520365, -53.046519) " points="47.0446837 46.5252669 59.9960459 46.5252669 59.9960459 59.5677717 47.0446837 59.5677717"></polygon>
                                <polygon id="Rectangle-9" fill="#7B5200" transform="translate(90.728698, 48.795893) rotate(-315.000000) translate(-90.728698, -48.795893) " points="86.6858696 44.7246143 94.7715266 44.7246143 94.7715266 52.8671725 86.6858696 52.8671725"></polygon>
                                <polygon id="Rectangle-9" fill="#7B5200" transform="translate(16.312031, 48.795893) rotate(-315.000000) translate(-16.312031, -48.795893) " points="12.2692029 44.7246143 20.35486 44.7246143 20.35486 52.8671725 12.2692029 52.8671725"></polygon>
                            </g>
                        </g>
                    </g>
                </g>
            </g>
            <path d="M105.144785,214.856281 C117.467482,192.8641 140.997893,178 168,178 C192.726281,178 214.541415,190.464099 227.505206,209.452099 C236.626419,204.691567 246.998885,202 258,202 C294.450793,202 324,231.549207 324,268 C324,304.450793 294.450793,334 258,334 C237.649567,334 219.450342,324.789586 207.343471,310.309905 C196.034517,317.702411 182.519136,322 168,322 C150.028169,322 133.594248,315.415422 120.979113,304.527141 C109.152061,322.29319 88.9431666,334 66,334 C29.5492065,334 0,304.450793 0,268 C0,231.549207 29.5492065,202 66,202 C80.6542888,202 94.1930907,206.775967 105.144785,214.856281 Z" id="Combined-Shape" fill="url(#linearGradient-5)"></path>
        </g>
    </g>
</svg>