<?xml version="1.0" encoding="UTF-8"?>
<svg width="136px" height="136px" viewBox="0 0 136 136" version="1.1" xmlns="http://www.w3.org/2000/svg" xmlns:xlink="http://www.w3.org/1999/xlink">
    <!-- Generator: Sketch 52.6 (67491) - http://www.bohemiancoding.com/sketch -->
    <title>No Ads</title>
    <desc>Created with Sketch.</desc>
    <defs>
        <circle id="path-1" cx="64" cy="64" r="64"></circle>
        <path d="M0.142857143,0.269230769 L8.9047619,0.269230769 L14.5119374,17.1048221 C14.8958736,18.2575936 14.2726093,19.5033414 13.1198378,19.8872776 C12.8956683,19.9619383 12.6609354,20 12.4246598,20 L8.30037498,20 C7.35322511,20 6.51238727,19.3937982 6.21309741,18.4951779 L0.142857143,0.269230769 Z" id="path-3"></path>
        <rect id="path-5" x="0.476190476" y="0.346153846" width="17.5238095" height="17.5384615" rx="8.76190476"></rect>
        <rect id="path-7" x="-1.13686838e-13" y="0.346153846" width="17.5238095" height="17.5384615" rx="8.76190476"></rect>
        <path d="M0.904761905,8.96153846 C7.49833683,8.95599724 13.704686,8.22522801 19.5238095,6.76923077 C25.342933,5.31323353 30.8191235,3.12092583 35.952381,0.192307692 L35.952381,44.0384615 C31.0384899,41.1647308 25.5622994,38.9724232 19.5238095,37.4615385 C13.4853196,35.9506538 7.27897044,35.2198845 0.904761905,35.2692308 L0.904761905,8.96153846 Z" id="path-9"></path>
        <path d="M4.78095238,0.961538462 L19,0.961538462 L19,27.2692308 L4.78095238,27.2692308 C2.35089948,27.2692308 0.380952381,25.2992837 0.380952381,22.8692308 L0.380952381,5.36153846 C0.380952381,2.93148556 2.35089948,0.961538462 4.78095238,0.961538462 Z" id="path-11"></path>
        <ellipse id="path-13" cx="15.5966387" cy="15.5102041" rx="15.5966387" ry="15.5102041"></ellipse>
        <path d="M88,61.2890354 L91.7275763,57.5614591 C92.4761885,56.812847 93.6899287,56.812847 94.4385409,57.5614591 C95.187153,58.3100713 95.187153,59.5238115 94.4385409,60.2724237 L90.7109646,64 L94.4385409,67.7275763 C95.187153,68.4761885 95.187153,69.6899287 94.4385409,70.4385409 C93.6899287,71.187153 92.4761885,71.187153 91.7275763,70.4385409 L88,66.7109646 L84.2724237,70.4385409 C83.5238115,71.187153 82.3100713,71.187153 81.5614591,70.4385409 C80.812847,69.6899287 80.812847,68.4761885 81.5614591,67.7275763 L85.2890354,64 L81.5614591,60.2724237 C80.812847,59.5238115 80.812847,58.3100713 81.5614591,57.5614591 C82.3100713,56.812847 83.5238115,56.812847 84.2724237,57.5614591 L88,61.2890354 Z" id="path-15"></path>
        <filter x="-3.6%" y="-3.6%" width="107.1%" height="114.3%" filterUnits="objectBoundingBox" id="filter-16">
            <feOffset dx="0" dy="1" in="SourceAlpha" result="shadowOffsetOuter1"></feOffset>
            <feColorMatrix values="0 0 0 0 0.923097364   0 0 0 0 0.266518757   0 0 0 0 0.189725938  0 0 0 1 0" type="matrix" in="shadowOffsetOuter1"></feColorMatrix>
        </filter>
    </defs>
    <g id="No-Ads" stroke="none" stroke-width="1" fill="none" fill-rule="evenodd">
        <g id="Group-5" transform="translate(4.000000, 4.000000)">
            <g id="Group-6">
                <g id="Group-4">
                    <mask id="mask-2" fill="white">
                        <use xlink:href="#path-1"></use>
                    </mask>
                    <use id="Oval-6" fill="#BFE9FD" xlink:href="#path-1"></use>
                    <g id="Group-3" mask="url(#mask-2)">
                        <g transform="translate(57.130454, 76.611216) rotate(-30.000000) translate(-57.130454, -76.611216) translate(49.130454, 66.611216)">
                            <mask id="mask-4" fill="white">
                                <use xlink:href="#path-3"></use>
                            </mask>
                            <use id="Mask" stroke="none" fill="#C37447" fill-rule="evenodd" xlink:href="#path-3"></use>
                            <ellipse id="Oval-2" stroke="none" fill="#DA8555" fill-rule="evenodd" mask="url(#mask-4)" cx="13.44" cy="16.454023" rx="2.44" ry="2.45402299"></ellipse>
                            <ellipse id="Oval-2" stroke="none" fill="#DA8555" fill-rule="evenodd" mask="url(#mask-4)" cx="8.01179677" cy="9.85594678" rx="2.44" ry="2.45402299"></ellipse>
                            <ellipse id="Oval-2" stroke="none" fill="#DA8555" fill-rule="evenodd" mask="url(#mask-4)" cx="1.35154273" cy="1.39184516" rx="2.44" ry="2.45402299"></ellipse>
                            <polygon id="Path-4" stroke="none" fill-opacity="0.5" fill="#80402F" fill-rule="evenodd" mask="url(#mask-4)" points="4.80772794 -0.314699206 11.6763953 20.762541 16.0673954 19.779176 9.34511428 -1.16928834"></polygon>
                        </g>
                    </g>
                    <path d="M35.4084049,65.0229885 C35.7926376,64.35991 36.5107974,63.9137931 37.3333333,63.9137931 C37.7746246,63.9137931 38.185873,64.0422004 38.5316305,64.2636281 C38.8757813,62.7917569 40.1985247,61.6954023 41.7777778,61.6954023 C42.3240582,61.6954023 42.8396461,61.8265857 43.2946549,62.0591172 C43.9981716,60.5349649 45.54199,59.4770115 47.3333333,59.4770115 C49.7879322,59.4770115 51.7777778,61.4634263 51.7777778,63.9137931 C51.7777778,64.2967978 51.7291633,64.6684676 51.6377583,65.0229885 L51.7777778,65.0229885 C51.7777778,67.4733553 49.791363,69.4597701 47.3409962,69.4597701 L29.5555556,69.4597701 C31.6479017,68.6264528 33.0982779,67.8869892 33.906684,67.2413793 C34.7150902,66.5957694 35.1165659,65.8563058 35.1111111,65.0229885 L35.4084049,65.0229885 Z" id="Combined-Shape" fill="#FFFFFF" mask="url(#mask-2)"></path>
                    <path d="M1.85284932,33.545977 C2.23708201,32.8828985 2.95524183,32.4367816 3.77777778,32.4367816 C4.21906906,32.4367816 4.63031741,32.5651889 4.97607495,32.7866166 C5.32022576,31.3147454 6.64296919,30.2183908 8.22222222,30.2183908 C8.76850263,30.2183908 9.28409059,30.3495742 9.73909935,30.5821057 C10.4426161,29.0579534 11.9864344,28 13.7777778,28 C16.2323767,28 18.2222222,29.9864148 18.2222222,32.4367816 C18.2222222,32.8197863 18.1736078,33.1914561 18.0822028,33.545977 L18.2222222,33.545977 C18.2222222,35.9963438 16.2358074,37.9827586 13.7854406,37.9827586 L-4,37.9827586 C-1.90765383,37.1494413 -0.45727767,36.4099777 0.351128472,35.7643678 C1.15953461,35.1187579 1.56101031,34.3792943 1.55555556,33.545977 L1.85284932,33.545977 Z" id="Combined-Shape" fill="#FFFFFF" mask="url(#mask-2)"></path>
                    <path d="M39.6964969,32.2929598 C40.2017628,31.4210115 41.146143,30.8343678 42.2277778,30.8343678 C42.8080758,30.8343678 43.3488674,31.0032234 43.8035386,31.2944008 C44.2560969,29.3588902 45.9955045,27.9171839 48.0722222,27.9171839 C48.790581,27.9171839 49.4685791,28.0896901 50.0669156,28.3954691 C50.9920402,26.3912088 53.0221613,25 55.3777778,25 C58.6055753,25 61.2222222,27.6121354 61.2222222,30.8343678 C61.2222222,31.338019 61.1582942,31.8267647 61.0380967,32.2929598 L61.2222222,32.2929598 C61.2222222,35.5151921 58.6100868,38.1273276 55.3878544,38.1273276 L32,38.1273276 C34.7514352,37.0315153 36.6586799,36.0591207 37.7217339,35.2101437 C38.784788,34.3611667 39.3127286,33.3887721 39.3055556,32.2929598 L39.6964969,32.2929598 Z" id="Combined-Shape" fill="#FFFFFF" mask="url(#mask-2)"></path>
                    <path d="M41.7297845,92.9470152 C42.0578976,90.5846702 44.0030004,88.7701149 46.3534676,88.7701149 C47.2813216,88.7701149 48.1460078,89.052877 48.8729936,89.5404769 C49.5966012,86.2993099 52.3777866,83.8850575 55.6983062,83.8850575 C56.8469092,83.8850575 57.9309786,84.1739328 58.8876749,84.6859842 C60.3668812,81.3296902 63.6128961,79 67.3793544,79 C72.5403663,79 76.724193,83.3742295 76.724193,88.7701149 C76.724193,95.5149718 71.2564062,100.982759 64.5115494,100.982759 L30,100.982759 C34.3993434,99.1477334 37.4488879,97.5193809 39.1486335,96.0977011 C40.2923924,95.1410528 41.1527761,94.0908241 41.7297845,92.9470152 Z" id="Combined-Shape" fill="#FFFFFF" mask="url(#mask-2)"></path>
                    <path d="M25.3007841,58.3678161 C25.7583801,57.0753901 26.9930902,56.1494253 28.4444444,56.1494253 C29.3292601,56.1494253 30.1335555,56.4935796 30.7303343,57.0551112 C31.1368412,54.6582245 33.4408364,52.8218391 36.2222222,52.8218391 C36.8896594,52.8218391 37.5296068,52.9275847 38.1224413,53.1214455 C39.3184311,50.9681531 41.7502037,49.4942529 44.5555556,49.4942529 C48.5442787,49.4942529 51.7777778,52.4738751 51.7777778,56.1494253 C51.7777778,56.9272717 51.6329621,57.6739502 51.3668196,58.3678161 L51.7777778,58.3678161 C51.7777778,62.0433663 48.7981556,65.0229885 45.1226054,65.0229885 L16.2222222,65.0229885 C19.5699761,63.7730125 21.890578,62.6638171 23.1840278,61.6954023 C24.4774776,60.7269875 25.1198387,59.6177921 25.1111111,58.3678161 L25.3007841,58.3678161 Z" id="Combined-Shape" fill-opacity="0.5" fill="#FFFFFF" mask="url(#mask-2)"></path>
                    <path d="M89.3007841,10.3678161 C89.7583801,9.07539007 90.9930902,8.14942529 92.4444444,8.14942529 C93.3292601,8.14942529 94.1335555,8.49357963 94.7303343,9.05511116 C95.1368412,6.65822451 97.4408364,4.82183908 100.222222,4.82183908 C100.889659,4.82183908 101.529607,4.92758465 102.122441,5.12144554 C103.318431,2.96815309 105.750204,1.49425287 108.555556,1.49425287 C112.544279,1.49425287 115.777778,4.47387506 115.777778,8.14942529 C115.777778,8.92727169 115.632962,9.6739502 115.36682,10.3678161 L115.777778,10.3678161 C115.777778,14.0433663 112.798156,17.0229885 109.122605,17.0229885 L80.2222222,17.0229885 C83.5699761,15.7730125 85.890578,14.6638171 87.1840278,13.6954023 C88.4774776,12.7269875 89.1198387,11.6177921 89.1111111,10.3678161 L89.3007841,10.3678161 Z" id="Combined-Shape" fill-opacity="0.5" fill="#FFFFFF" mask="url(#mask-2)"></path>
                    <path d="M-29,109.205974 C-29,109.205974 -0.449032738,83.9809 26.9188988,87.3012125 C54.2868304,90.621525 73.1837798,107.676103 104.370536,105.22718 C125.161706,103.594564 143.281746,98.7136118 158.730655,90.5843226 L158.730655,130.965647 L-16.3790923,126.516242 C-24.7930308,114.976064 -29,109.205974 -29,109.205974 Z" id="Path-7" fill="#68CD8E" mask="url(#mask-2)" transform="translate(64.865327, 108.982823) scale(-1, 1) translate(-64.865327, -108.982823) "></path>
                    <path d="M69,105.25978 C98.9492188,103.149102 116.212565,99.743829 120.790039,95.0439592 C125.367513,90.3440894 125.994141,93.7493628 122.669922,105.25978 L85.0283203,110.778334 L69,105.25978 Z" id="Path-8" fill="#63BF85" mask="url(#mask-2)"></path>
                    <path d="M-39,109.205974 C-39,109.205974 -10.4490327,83.9809 16.9188988,87.3012125 C44.2868304,90.621525 63.1837798,107.676103 94.3705357,105.22718 C115.161706,103.594564 133.281746,98.7136118 148.730655,90.5843226 L148.730655,130.965647 L-26.3790923,126.516242 C-34.7930308,114.976064 -39,109.205974 -39,109.205974 Z" id="Path-7" fill="#91E3AF" mask="url(#mask-2)"></path>
                    <path d="M9.6171875,102 C26.7356771,104.00651 42.8808594,110.209635 58.0527344,120.609375 L82.9609375,140.447266 L7,125.6875 L9.6171875,102 Z" id="Path-10" fill="#A7E8BF" mask="url(#mask-2)"></path>
                </g>
            </g>
            <g id="Group" transform="translate(57.500000, 52.035898) rotate(-30.000000) translate(-57.500000, -52.035898) translate(23.000000, 27.535898)">
                <g id="Rectangle" transform="translate(51.000000, 15.000000)">
                    <mask id="mask-6" fill="white">
                        <use xlink:href="#path-5"></use>
                    </mask>
                    <use id="Mask" fill="#264B65" xlink:href="#path-5"></use>
                    <rect fill="#2D5876" mask="url(#mask-6)" x="7" y="0.346153846" width="11" height="11.0091973" rx="5.5"></rect>
                </g>
                <g id="Rectangle" transform="translate(0.000000, 15.000000)">
                    <mask id="mask-8" fill="white">
                        <use xlink:href="#path-7"></use>
                    </mask>
                    <use id="Mask" fill="#356282" xlink:href="#path-7"></use>
                    <path d="M4.32330827,0.346153846 L4.32330827,0.346153846 C6.7110055,0.346153846 8.64661654,2.28176489 8.64661654,4.66946212 L8.64661654,4.67669173 C8.64661654,7.06438896 6.7110055,9 4.32330827,9 L4.32330827,9 C1.93561104,9 -3.07938361e-14,7.06438896 -3.10862447e-14,4.67669173 L-3.10862447e-14,4.66946212 C-3.13786533e-14,2.28176489 1.93561104,0.346153846 4.32330827,0.346153846 Z" fill="#436E8D" mask="url(#mask-8)"></path>
                </g>
                <g id="Path-2" transform="translate(21.000000, 2.000000)">
                    <mask id="mask-10" fill="white">
                        <use xlink:href="#path-9"></use>
                    </mask>
                    <use id="Mask" fill="#356282" xlink:href="#path-9"></use>
                    <path d="M36.7195538,10.2737641 C35.0844038,14.778453 31.2701382,16.4279235 25.276757,15.2221757 C16.2866852,13.413554 16.3244552,17.7739157 13.7165873,20.0779849 C11.9780086,21.614031 8.37263606,21.7210241 2.90046959,20.3989643 C2.16722347,19.9756244 -0.442398605,17.55031 -4.92839663,13.1230208 L-2.44761432,5.63770326 L1.46369321,2.05159646 L35.3392633,-2.20659645 L38.8741132,1.7636374 L36.7195538,10.2737641 Z" fill="#3A6D91" mask="url(#mask-10)"></path>
                </g>
                <rect id="Rectangle-12" fill="#45789C" x="55" y="-2.27373675e-13" width="7.42857143" height="48.2307692" rx="3.71428571"></rect>
                <path d="M57.75,-1.59872116e-13 L59.6785714,-1.59872116e-13 C61.1973545,-1.60151111e-13 62.4285714,1.23121694 62.4285714,2.75 L62.4285714,16 L55,16 L55,2.75 C55,1.23121694 56.2312169,-1.61813566e-13 57.75,-1.62092562e-13 Z" id="Rectangle-12" fill="#5287AD"></path>
                <g id="Path-3" transform="translate(4.000000, 10.000000)">
                    <mask id="mask-12" fill="white">
                        <use xlink:href="#path-11"></use>
                    </mask>
                    <use id="Mask" fill="#45789C" xlink:href="#path-11"></use>
                    <path d="M18.875961,11.6510043 C13.8849063,9.8419885 9.26909018,9.96409523 5.02851255,12.0173245 C0.787934919,14.0705537 -2.25808377,14.5944597 -4.10954353,13.5890425 L-1.10988598,0.730397287 L10.112335,-1.30862215 L19.7081544,-0.62633449 L18.875961,11.6510043 Z" fill="#4C82A8" mask="url(#mask-12)"></path>
                </g>
            </g>
            <g id="Group-2" transform="translate(72.000000, 48.000000)">
                <mask id="mask-14" fill="white">
                    <use xlink:href="#path-13"></use>
                </mask>
                <use id="Mask" fill="#FC513D" xlink:href="#path-13"></use>
                <ellipse id="Oval-5" fill-opacity="0.15" fill="#FFFFFF" mask="url(#mask-14)" cx="16" cy="11.9224138" rx="14" ry="13.9224138"></ellipse>
                <ellipse id="Oval-5" fill-opacity="0.15" fill="#FFFFFF" mask="url(#mask-14)" cx="16" cy="5.94458128" rx="10" ry="9.94458128"></ellipse>
            </g>
            <g id="Combined-Shape">
                <use fill="black" fill-opacity="1" filter="url(#filter-16)" xlink:href="#path-15"></use>
                <use fill="#FFFFFF" fill-rule="evenodd" xlink:href="#path-15"></use>
            </g>
        </g>
    </g>
</svg>