<?xml version="1.0" encoding="UTF-8"?>
<svg width="136px" height="136px" viewBox="0 0 136 136" version="1.1" xmlns="http://www.w3.org/2000/svg" xmlns:xlink="http://www.w3.org/1999/xlink">
    <!-- Generator: Sketch 52.5 (67469) - http://www.bohemiancoding.com/sketch -->
    <title>Premium support</title>
    <desc>Created with Sketch.</desc>
    <defs>
        <linearGradient x1="50%" y1="0%" x2="50%" y2="100%" id="linearGradient-1">
            <stop stop-color="#976A00" offset="0%"></stop>
            <stop stop-color="#5D3800" offset="100%"></stop>
        </linearGradient>
        <circle id="path-2" cx="64" cy="64" r="64"></circle>
        <linearGradient x1="-0.489700672%" y1="99.5102993%" x2="99.5102993%" y2="0.489700672%" id="linearGradient-4">
            <stop stop-color="#FEC240" offset="0%"></stop>
            <stop stop-color="#FDEA8A" offset="49.4580925%"></stop>
            <stop stop-color="#B97B1D" offset="100%"></stop>
        </linearGradient>
    </defs>
    <g id="Premium-support" stroke="none" stroke-width="1" fill="none" fill-rule="evenodd">
        <g id="Group-19" transform="translate(4.000000, 4.000000)">
            <mask id="mask-3" fill="white">
                <use xlink:href="#path-2"></use>
            </mask>
            <use id="Oval-6" fill="url(#linearGradient-1)" xlink:href="#path-2"></use>
            <path d="M64.4705882,102.974459 L74.9617441,92.438332 L89.7254902,92.438332 C93.251522,92.438332 96.1411765,89.5362907 96.1411765,85.991715 L96.1411765,35.2653963 C96.1411765,31.7208206 93.251522,28.8187793 89.7254902,28.8187793 L39.2156863,28.8187793 C35.6666396,28.8187793 32.8,31.7076687 32.8,35.2653963 L32.8,85.991715 C32.8,89.5494426 35.6666396,92.438332 39.2156863,92.438332 L53.9794324,92.438332 L64.4705882,102.974459 Z M68.8784314,86.791715 L60.0627451,86.791715 L60.0627451,77.945098 L68.8784314,77.945098 L68.8784314,86.791715 Z M76.1167134,58.4723812 L72.870381,61.8050696 C69.8340364,64.896782 68.8784314,66.9287422 68.8784314,71.4984811 L68.8784314,72.2984811 L60.0627451,72.2984811 L60.0627451,69.6868268 C60.0627451,65.6041876 61.6852832,61.7517437 64.5125303,58.8729424 L68.9985385,54.2953085 C70.2040565,53.1173441 70.8862745,51.5017615 70.8862745,49.7586302 C70.8862745,46.2140545 67.9966201,43.3120133 64.4705882,43.3120133 C60.9445564,43.3120133 58.054902,46.2140545 58.054902,49.7586302 L58.054902,50.5586302 L49.2392157,50.5586302 L49.2392157,49.7586302 C49.2392157,41.3100549 56.0546593,34.4653963 64.4705882,34.4653963 C72.8865172,34.4653963 79.7019608,41.3100549 79.7019608,49.7586302 C79.7019608,53.0665406 78.386795,56.1909005 76.1167134,58.4723812 Z" id="Shape" stroke-opacity="0.2" stroke="#FFFFFF" stroke-width="1.6" fill="url(#linearGradient-4)" fill-rule="nonzero" mask="url(#mask-3)"></path>
        </g>
        <g id="Group-17" transform="translate(94.516504, 34.516504) rotate(-315.000000) translate(-94.516504, -34.516504) translate(76.016504, 15.516504)" fill="#FFFFFF">
            <path d="M18.8366841,19.0199666 L17.7004462,37.1750129 L16.5642082,19.0199666 L17.7004462,0.864920263 L18.8366841,19.0199666 Z" id="Combined-Shape" transform="translate(18.634796, 19.019967) rotate(-270.000000) translate(-18.634796, -19.019967) "></path>
            <path d="M18.8366841,19.0199666 L17.7004462,37.1750129 L16.5642082,19.0199666 L17.7004462,0.864920263 L18.8366841,19.0199666 Z" id="Combined-Shape" transform="translate(18.634796, 19.019967) rotate(-180.000000) translate(-18.634796, -19.019967) "></path>
        </g>
    </g>
</svg>