<svg xmlns="http://www.w3.org/2000/svg" xmlns:xlink="http://www.w3.org/1999/xlink" width="175" height="33" viewBox="0 0 175 33">
  <defs>
    <polygon id="logo-white-a" points="36.989 21.973 .378 21.973 .378 .122 36.989 .122"/>
    <polygon id="logo-white-c" points="36.989 21.973 .378 21.973 .378 .122 36.989 .122"/>
    <polygon id="logo-white-e" points="0 32.972 174.913 32.972 174.913 .057 0 .057"/>
    <polygon id="logo-white-g" points="0 32.972 174.913 32.972 174.913 .057 0 .057"/>
    <polygon id="logo-white-i" points="0 32.972 174.913 32.972 174.913 .057 0 .057"/>
    <polygon id="logo-white-k" points="0 32.972 174.913 32.972 174.913 .057 0 .057"/>
  </defs>
  <g fill="none" fill-rule="evenodd">
    <g transform="translate(81 11)">
      <mask id="logo-white-b" fill="#fff">
        <use xlink:href="#logo-white-a"/>
      </mask>
      <path fill="#FFF" fill-rule="nonzero" d="M11.3317125,0.121916667 C13.92125,0.121916667 16.086675,1.08945833 17.4875875,2.51991667 L14.6432125,6.34883333 C13.624325,5.50733333 12.690075,5.12875 11.7137375,5.12875 C8.6991625,5.12875 6.788575,7.442875 6.788575,11.0609583 C6.788575,14.6795 8.7842625,16.9931667 11.50145,16.9931667 C13.02955,16.9931667 14.2611875,16.2781667 15.280075,15.4788333 L17.784975,19.391625 C15.7467375,21.1585 13.0721,22 10.7794875,22 C4.9205375,22 0.3778625,18.0033333 0.3778625,11.0609583 C0.3778625,4.11904167 5.51485,0.121916667 11.3317125,0.121916667" mask="url(#logo-white-b)"/>
      <mask id="logo-white-d" fill="#fff">
        <use xlink:href="#logo-white-c"/>
      </mask>
      <path fill="#FFF" fill-rule="nonzero" d="M27.2666875,17.2035417 C28.71015,17.2035417 29.6439375,16.5307083 30.747925,15.4366667 L30.747925,11.7764167 C26.2898875,12.365375 24.846425,13.627625 24.846425,15.2262917 C24.846425,16.5724167 25.780675,17.2035417 27.2666875,17.2035417 Z M30.747925,8.07354167 C30.6207375,6.22233333 29.6864875,5.04441667 27.436425,5.04441667 C25.653025,5.04441667 23.8700875,5.759875 21.8323125,6.93779167 L19.6243375,2.85679167 C22.298975,1.25766667 25.31355,0.121916667 28.62505,0.121916667 C34.016875,0.121916667 36.9889,3.15104167 36.9889,9.54616667 L36.9889,21.495375 L31.8944625,21.495375 L31.4273375,19.3494583 L31.2996875,19.3494583 C29.51675,20.9064167 27.5210625,22 25.1438125,22 C21.3226375,22 18.9028375,19.2234167 18.9028375,15.6892083 C18.9028375,11.3135 22.426625,8.91504167 30.747925,8.07354167 L30.747925,8.07354167 Z" mask="url(#logo-white-d)"/>
    </g>
    <polygon fill="#FFF" fill-rule="nonzero" points="121 33 127 33 127 3 121 3"/>
    <mask id="logo-white-f" fill="#fff">
      <use xlink:href="#logo-white-e"/>
    </mask>
    <polygon fill="#FFF" fill-rule="nonzero" points="130.269 32.488 136.6 32.488 136.6 2.579 130.269 2.579" mask="url(#logo-white-f)"/>
    <mask id="logo-white-h" fill="#fff">
      <use xlink:href="#logo-white-g"/>
    </mask>
    <path fill="#FFF" fill-rule="nonzero" d="M152.536193,19.7307465 C152.536193,17.2989718 151.502614,15.5922676 148.961595,15.5922676 C146.980295,15.5922676 145.257507,16.9150563 144.82681,19.7307465 L152.536193,19.7307465 Z M148.832105,10.8137746 C154.905027,10.8137746 157.919437,15.2083521 157.919437,20.9684789 C157.919437,22.0774648 157.790416,23.1013944 157.661394,23.6135915 L144.869973,23.6135915 C145.429692,26.813662 147.583177,28.221507 150.425871,28.221507 C152.019169,28.221507 153.483445,27.7520704 155.034048,26.813662 L157.14437,30.6109859 C154.947721,32.1038873 152.105496,33 149.564477,33 C143.448861,33 138.754357,28.9042817 138.754357,21.9068873 C138.754357,15.0377746 143.706903,10.8137746 148.832105,10.8137746 L148.832105,10.8137746 Z" mask="url(#logo-white-h)"/>
    <mask id="logo-white-j" fill="#fff">
      <use xlink:href="#logo-white-i"/>
    </mask>
    <path fill="#FFF" fill-rule="nonzero" d="M160.528485,11.325507 L165.69685,11.325507 L166.127547,15.0377746 L166.299732,15.0377746 C167.849866,12.1788592 170.175536,10.8137746 172.372185,10.8137746 C173.577949,10.8137746 174.310322,10.9843521 174.913204,11.2404507 L173.879625,16.6589577 C173.104558,16.4456197 172.458512,16.3178028 171.553954,16.3178028 C169.960188,16.3178028 167.979357,17.3417324 166.85945,20.2001831 L166.85945,32.4882676 L160.528485,32.4882676 L160.528485,11.325507" mask="url(#logo-white-j)"/>
    <mask id="logo-white-l" fill="#fff">
      <use xlink:href="#logo-white-k"/>
    </mask>
    <path fill="#FFF" fill-rule="nonzero" d="M68.4939678,16.6594225 C70.211126,15.8060704 72.3467828,15.8479014 72.5757373,16.8662535 C73.0575737,19.0052113 69.9394772,20.8062676 65.7831099,21.4221127 C65.7939008,20.4651127 66.0406836,17.9148169 68.4939678,16.6594225 Z M59.8129357,23.8125211 C59.5619303,26.1606338 59.391622,27.9068451 56.8918901,27.7488169 C55.5664879,27.6400563 54.8918231,26.6997887 55.0940349,24.8508592 L56.8088472,13.3924225 C56.830429,13.1953521 57.2803619,10.8797746 55.6063673,10.808662 C53.8408847,10.733831 51.5269437,11.5425634 51.1314343,14.018493 C50.7434316,16.4460845 50.58063,17.8297606 50.2681635,19.8004648 C50.127882,20.7323662 49.9843164,21.6596197 49.8674933,22.5701408 C49.447118,25.5443239 49.2838472,27.0939296 47.0050938,26.954493 C44.9604558,26.745338 45.0979223,24.9902958 45.3128016,23.5006479 L46.7357909,13.4175211 C46.7569035,13.2204507 47.2073056,10.8820986 45.533311,10.8109859 C43.7682976,10.7356901 41.4538874,11.567662 41.058378,14.0440563 C40.9598525,14.6580423 40.8763405,15.2055634 40.8012735,15.7126479 L40.799866,15.6968451 C40.3813673,18.5831831 38.7303619,19.6075775 37.4410858,19.5267042 C35.8402815,19.2561972 36.2442359,17.7158873 36.4797587,16.1346761 C36.4877346,16.0807606 36.6660188,14.8913662 36.6735255,14.8374507 C37.2130697,11.2497465 35.9158177,9.98738028 32.7550268,11.3213239 C31.0425603,12.0445352 29.2508043,13.9483099 28.1168231,15.318507 L28.4039544,13.3938169 C28.425067,13.1962817 28.8754692,10.8807042 27.2010054,10.8100563 C25.435992,10.7347606 23.1220509,11.543493 22.7265416,14.0198873 C22.6843164,14.282493 22.6449062,14.5325493 22.6078418,14.7728451 C22.0725201,17.067507 18.6898123,27.8427042 13.5261394,27.8427042 C9.79436997,27.8427042 11.0728552,20.8332254 12.2720509,16.3494085 C14.280563,16.5678592 16.1469169,16.7444789 16.8154826,16.8025775 C19.0210456,16.995 19.4930295,15.1172535 19.6459786,14.2267183 C20.0766756,11.7865775 19.7355898,10.8054085 17.7036193,10.8054085 C17.7036193,10.8054085 16.2318365,10.8058732 14.1703083,10.8058732 C14.8590483,9.26277465 15.8147453,7.31949296 16.9965818,5.19587324 C18.9572386,1.67230986 15.7260724,0.507549296 15.7260724,0.507549296 C15.7260724,0.507549296 12.0355898,-1.38692958 9.69209115,2.58933803 C8.04155496,5.38969014 6.99671582,8.40105634 6.27325737,10.806338 C3.87486595,10.806338 1.90717158,10.806338 1.38827078,10.806338 C-0.138404826,10.806338 0.00328418231,12.1797887 0.00328418231,12.1797887 C0.00328418231,13.4407606 2.99517426,14.5799577 5.1036193,15.1999859 C3.95743968,20.9034085 3.11293566,32.9683944 12.3386729,32.9567746 C16.7680965,32.9521268 19.3579088,29.9937465 20.8714477,26.6407606 C20.6560992,29.0637042 20.7550938,31.218 21.7192359,32.1829014 C22.9986595,33.4638592 25.4636729,33.1705775 25.7226542,31.1942958 C25.9023458,29.9296056 26.2659517,27.612169 26.5535523,25.7567324 C26.9467158,23.4918169 27.4430965,22.2220141 28.238807,20.4390845 C29.1339812,18.4325915 31.6768767,16.7779437 31.6308981,19.1046761 C31.4953083,25.9370704 36.6927614,26.076507 39.694504,23.0381831 C39.2656836,26.0318873 39.1310322,28.8545493 40.7426273,30.7769155 C43.8762064,34.5152113 48.577748,32.6885915 51.0300938,31.053 C53.6729223,34.4924366 59.8706434,32.6425775 61.4390751,30.3939296 L61.4404826,30.3990423 C63.2317694,32.8140845 66.5605228,33.0460141 69.0372654,32.9470141 C74.2684987,32.6927746 77.919571,28.3423521 78.3474531,26.0630282 C78.5271448,25.1069577 78.008244,24.1174225 76.688941,24.8782817 C75.563874,25.4876197 73.7425603,27.8129577 69.8503351,28.1197183 C67.0977212,28.3349155 65.8380027,26.3851268 65.8380027,25.1148592 C74.3210456,23.9356901 77.5752011,20.6700845 77.5752011,16.5204507 C77.5752011,13.7307887 75.1397453,10.8054085 71.1363271,10.8054085 C62.897252,10.8054085 60.3294906,18.1239718 59.8129357,23.8125211 L59.8129357,23.8125211 Z" mask="url(#logo-white-l)"/>
  </g>
</svg>
